<svg xmlns="http://www.w3.org/2000/svg" version="1.0" viewBox="0 0 1133.858 1133.858"><path fill="#f2f2f2" d="M251.696,219.153h-17.221v-17.223c0-2.211-1.795-4.002-4.003-4.002c-2.211,0-4.005,1.791-4.005,4.002 v17.223h-17.222c-2.208,0-4.002,1.794-4.002,4.005c0,2.21,1.793,4.003,4.002,4.003h17.222v17.225c0,2.21,1.794,4.002,4.005,4.002 c2.208,0,4.003-1.792,4.003-4.002v-17.225h17.221c2.211,0,4.004-1.793,4.004-4.003 C255.701,220.947,253.907,219.153,251.696,219.153z"/><path fill="#f2f2f2" d="M464.49,154.015v-17.221h17.222c2.211,0,4.002-1.795,4.002-4.004c0-2.21-1.791-4.004-4.002-4.004H464.49 v-17.223c0-2.208-1.794-4.002-4.005-4.002s-4.002,1.794-4.002,4.002v17.223h-17.226c-2.21,0-4.002,1.794-4.002,4.004 c0,2.209,1.792,4.004,4.002,4.004h17.226v17.221c0,2.211,1.791,4.006,4.002,4.006S464.49,156.226,464.49,154.015z"/><path fill="#f2f2f2" d="M290.529,270.216v-7.877h7.876c1.012,0,1.831-0.82,1.831-1.832c0-1.01-0.819-1.83-1.831-1.83h-7.876v-7.879 c0-1.01-0.821-1.831-1.834-1.831c-1.009,0-1.83,0.821-1.83,1.831v7.879h-7.878c-1.012,0-1.831,0.82-1.831,1.83 c0,1.012,0.819,1.832,1.831,1.832h7.878v7.877c0,1.012,0.82,1.832,1.83,1.832C289.708,272.048,290.529,271.228,290.529,270.216z"/><path fill="#f2f2f2" d="M711.593,232.866v-7.877h7.876c1.012,0,1.831-0.82,1.831-1.832c0-1.011-0.819-1.831-1.831-1.831h-7.876 v-7.878c0-1.01-0.822-1.832-1.833-1.832c-1.012,0-1.831,0.822-1.831,1.832v7.878h-7.879c-1.012,0-1.83,0.82-1.83,1.831 c0,1.012,0.818,1.832,1.83,1.832h7.879v7.877c0,1.012,0.819,1.832,1.831,1.832C710.771,234.698,711.593,233.878,711.593,232.866z"/><path fill="#f2f2f2" d="M526.494,89.161v-7.877h7.877c1.012,0,1.831-0.822,1.831-1.832c0-1.011-0.819-1.832-1.831-1.832h-7.877 v-7.877c0-1.01-0.82-1.83-1.832-1.83s-1.831,0.82-1.831,1.83v7.877h-7.878c-1.012,0-1.831,0.821-1.831,1.832 c0,1.01,0.819,1.832,1.831,1.832h7.878v7.877c0,1.01,0.819,1.832,1.831,1.832S526.494,90.171,526.494,89.161z"/><path fill="#e6e2d6" d="M81.959,490.684v-7.878h7.877c1.012,0,1.831-0.82,1.831-1.83c0-1.012-0.819-1.832-1.831-1.832h-7.877 v-7.877c0-1.011-0.82-1.831-1.832-1.831s-1.831,0.82-1.831,1.831v7.877h-7.878c-1.012,0-1.831,0.82-1.831,1.832 c0,1.01,0.819,1.83,1.831,1.83h7.878v7.878c0,1.011,0.819,1.832,1.831,1.832S81.959,491.694,81.959,490.684z"/><path fill="#f2f2f2" d="M488.636,200.585v-7.877h7.877c1.011,0,1.831-0.82,1.831-1.832c0-1.011-0.82-1.831-1.831-1.831h-7.877 v-7.878c0-1.01-0.821-1.831-1.832-1.831s-1.832,0.821-1.832,1.831v7.878h-7.877c-1.012,0-1.831,0.82-1.831,1.831 c0,1.012,0.819,1.832,1.831,1.832h7.877v7.877c0,1.012,0.821,1.832,1.832,1.832S488.636,201.597,488.636,200.585z"/><path fill="#f2f2f2" d="M392.697,100.702v-7.877h7.877c1.012,0,1.831-0.82,1.831-1.832c0-1.011-0.819-1.831-1.831-1.831h-7.877 v-7.878c0-1.01-0.822-1.832-1.832-1.832c-1.011,0-1.832,0.822-1.832,1.832v7.878h-7.877c-1.012,0-1.831,0.82-1.831,1.831 c0,1.012,0.819,1.832,1.831,1.832h7.877v7.877c0,1.012,0.821,1.832,1.832,1.832C391.875,102.534,392.697,101.714,392.697,100.702z"/><path fill="#002600" d="M969.225,584.877c-0.202,0.176-0.403,0.354-0.619,0.529c-22.639-43.129-63.519-85.602-85.715-106.964 c-19.303-1.138-34.943,2.071-34.943,2.071c-7.87,0.304-15.792,1.201-23.534,2.49c-4.637,0.77-9.211,1.692-13.657,2.703 c1.73-0.405-120.091-87.169-120.091-87.169s54.689-62.18,55.649-70.796c0.909-8.186,4.637-20.592,15.728-37.849 c13.568-21.11,41.096-21.754,61.209-19.771c2.311,28.159,7.629,80.297,15.853,89.886c8.527,9.954,71.794-26.656,111.146-55.712 c24.129,14.515,51.277,33.187,56.874,50.443C1017.23,385.904,1001.438,555.82,969.225,584.877z"/><path fill="#55ab67" d="M822.732,355.32c-0.076-9.892-8.162-17.851-18.042-17.775l-680.822,5.521 c-9.878,0.076-17.824,8.173-17.748,18.053l3.435,423.727c0.077,9.892,8.163,17.838,18.042,17.762l680.822-5.52 c9.878-0.076,17.824-8.162,17.748-18.041L822.732,355.32z M163.461,393.574c-5.812,0.037-10.562-4.625-10.599-10.437 c-0.052-5.811,4.624-10.561,10.422-10.599c5.811-0.051,10.561,4.624,10.611,10.422 C173.935,388.771,169.272,393.523,163.461,393.574z M226.538,393.056c-5.812,0.05-10.549-4.624-10.599-10.435 c-0.051-5.813,4.624-10.549,10.435-10.6c5.798-0.051,10.548,4.623,10.6,10.434C237.023,388.268,232.35,393.005,226.538,393.056z M289.616,392.55c-5.799,0.038-10.55-4.624-10.6-10.435c-0.051-5.811,4.624-10.563,10.434-10.599 c5.812-0.051,10.549,4.622,10.601,10.422C300.1,387.75,295.427,392.499,289.616,392.55z M352.705,392.031 c-5.811,0.051-10.561-4.623-10.612-10.434c-0.05-5.799,4.624-10.549,10.435-10.6c5.812-0.051,10.563,4.624,10.6,10.436 C363.178,387.244,358.503,391.98,352.705,392.031z M415.781,391.527c-5.811,0.038-10.561-4.624-10.612-10.436 c-0.037-5.812,4.624-10.561,10.437-10.6c5.812-0.051,10.562,4.624,10.61,10.422C426.256,386.727,421.593,391.477,415.781,391.527z M478.858,391.009c-5.811,0.051-10.561-4.624-10.598-10.435c-0.052-5.799,4.623-10.549,10.422-10.6 c5.812-0.051,10.561,4.623,10.611,10.436C489.332,386.221,484.67,390.959,478.858,391.009z M541.937,390.503 c-5.813,0.038-10.55-4.622-10.6-10.435c-0.052-5.811,4.624-10.562,10.436-10.599c5.811-0.051,10.548,4.624,10.599,10.423 C552.421,385.703,547.748,390.453,541.937,390.503z M605.014,389.986c-5.8,0.049-10.549-4.624-10.6-10.436 c-0.051-5.799,4.624-10.549,10.435-10.6s10.548,4.624,10.6,10.436C615.498,385.198,610.824,389.936,605.014,389.986z M668.103,389.48c-5.811,0.038-10.562-4.624-10.612-10.436c-0.036-5.811,4.624-10.561,10.435-10.6 c5.813-0.051,10.563,4.625,10.601,10.423C678.576,384.68,673.901,389.43,668.103,389.48z M731.18,388.962 c-5.811,0.051-10.561-4.624-10.599-10.422c-0.051-5.812,4.622-10.562,10.422-10.612c5.811-0.049,10.562,4.623,10.611,10.436 C741.652,384.174,736.99,388.912,731.18,388.962z"/><path fill="#002600" d="M253.929,525.034c0.032,3.956-3.147,7.188-7.105,7.22l-85.59,0.695c-3.955,0.031-7.187-3.148-7.218-7.104 l-0.696-85.591c-0.032-3.955,3.148-7.188,7.104-7.219l85.592-0.695c3.955-0.031,7.188,3.148,7.22,7.104L253.929,525.034z"/><path fill="#002600" d="M380.138,524.012c0.032,3.955-3.148,7.188-7.104,7.22l-85.592,0.693c-3.956,0.032-7.188-3.147-7.22-7.103 l-0.693-85.592c-0.032-3.955,3.147-7.188,7.103-7.22l85.59-0.693c3.957-0.032,7.19,3.147,7.223,7.103L380.138,524.012z"/><path fill="#002600" d="M632.554,521.965c0.032,3.955-3.148,7.188-7.104,7.22l-85.591,0.693c-3.956,0.032-7.188-3.148-7.221-7.103 l-0.693-85.592c-0.032-3.955,3.148-7.188,7.104-7.219l85.592-0.693c3.955-0.033,7.188,3.146,7.22,7.102L632.554,521.965z"/><path fill="#002600" d="M758.763,520.942c0.032,3.954-3.148,7.187-7.104,7.218l-85.592,0.695c-3.955,0.031-7.188-3.148-7.22-7.104 l-0.693-85.591c-0.032-3.956,3.147-7.188,7.102-7.22l85.592-0.694c3.956-0.032,7.188,3.147,7.221,7.104L758.763,520.942z"/><path fill="#002600" d="M506.345,522.988c0.032,3.955-3.148,7.188-7.104,7.219l-85.592,0.695c-3.955,0.031-7.188-3.148-7.22-7.104 l-0.693-85.592c-0.031-3.955,3.148-7.188,7.104-7.219l85.591-0.695c3.956-0.031,7.188,3.148,7.22,7.104L506.345,522.988z"/><path fill="#002600" d="M254.823,635.467c0.032,3.955-3.147,7.188-7.104,7.219l-85.592,0.695c-3.956,0.032-7.187-3.148-7.219-7.104 l-0.694-85.592c-0.032-3.955,3.148-7.188,7.104-7.22l85.592-0.693c3.955-0.032,7.188,3.148,7.22,7.104L254.823,635.467z"/><path fill="#002600" d="M381.033,634.443c0.032,3.955-3.148,7.188-7.104,7.221l-85.591,0.693c-3.955,0.031-7.188-3.148-7.22-7.104 l-0.694-85.592c-0.032-3.955,3.148-7.188,7.104-7.219l85.591-0.695c3.956-0.031,7.188,3.148,7.221,7.104L381.033,634.443z"/><path fill="#002600" d="M633.448,632.396c0.032,3.956-3.148,7.188-7.104,7.221l-85.592,0.694c-3.955,0.032-7.188-3.148-7.22-7.104 l-0.693-85.591c-0.032-3.956,3.148-7.188,7.104-7.22l85.592-0.693c3.955-0.032,7.188,3.146,7.22,7.103L633.448,632.396z"/><path fill="#002600" d="M759.658,631.375c0.032,3.953-3.148,7.188-7.104,7.219l-85.591,0.693c-3.955,0.032-7.188-3.148-7.22-7.104 l-0.694-85.59c-0.032-3.955,3.148-7.188,7.103-7.221l85.592-0.693c3.956-0.033,7.188,3.148,7.22,7.104L759.658,631.375z"/><path fill="#002600" d="M507.241,633.42c0.031,3.955-3.148,7.188-7.104,7.22l-85.591,0.694c-3.956,0.032-7.188-3.148-7.22-7.104 l-0.693-85.59c-0.032-3.956,3.148-7.188,7.104-7.221l85.592-0.694c3.955-0.032,7.188,3.148,7.22,7.104L507.241,633.42z"/><path fill="#002600" d="M255.719,745.898c0.032,3.955-3.148,7.188-7.104,7.221l-85.592,0.693c-3.955,0.033-7.188-3.148-7.22-7.104 l-0.693-85.59c-0.032-3.955,3.148-7.188,7.104-7.22l85.591-0.694c3.956-0.032,7.188,3.148,7.22,7.104L255.719,745.898z"/><path fill="#002600" d="M381.929,744.876c0.032,3.956-3.148,7.188-7.106,7.22l-85.589,0.693c-3.955,0.032-7.188-3.146-7.22-7.103 l-0.696-85.592c-0.032-3.955,3.148-7.188,7.104-7.22l85.592-0.693c3.955-0.031,7.188,3.148,7.22,7.103L381.929,744.876z"/><path fill="#002600" d="M634.344,742.83c0.032,3.955-3.148,7.188-7.104,7.219l-85.592,0.693c-3.955,0.032-7.188-3.146-7.22-7.102 l-0.693-85.592c-0.031-3.956,3.148-7.188,7.104-7.221l85.592-0.693c3.955-0.031,7.188,3.147,7.22,7.104L634.344,742.83z"/><path fill="#002600" d="M760.553,741.807c0.032,3.955-3.147,7.187-7.104,7.219l-85.591,0.694c-3.954,0.032-7.187-3.148-7.219-7.104 l-0.695-85.59c-0.032-3.955,3.148-7.188,7.104-7.22l85.592-0.694c3.955-0.032,7.188,3.148,7.22,7.104L760.553,741.807z"/><path fill="#002600" d="M508.137,743.854c0.032,3.955-3.148,7.186-7.104,7.219l-85.591,0.693c-3.956,0.033-7.188-3.148-7.22-7.104 l-0.693-85.592c-0.032-3.953,3.148-7.186,7.104-7.218l85.59-0.694c3.957-0.032,7.189,3.148,7.222,7.104L508.137,743.854z"/><path fill="#f2f2f2" d="M172.574,385.391c-0.004,0-0.007,0-0.011,0c-0.242-0.002-24.211-0.502-24.612-25.35 c-0.37-22.842,12.027-29.045,19.451-30.71c6.984-1.567,22.733-0.498,26.838,12.798c0.206,0.666-0.168,1.374-0.834,1.578 c-0.667,0.205-1.375-0.166-1.581-0.834c-3.939-12.758-19.832-11.984-23.871-11.076c-11.522,2.584-17.729,12.6-17.478,28.201 c0.361,22.361,21.223,22.855,22.11,22.865c0.697,0.008,1.257,0.579,1.25,1.276C173.828,384.833,173.266,385.391,172.574,385.391z"/><path fill="#f2f2f2" d="M236.905,384.869c-0.005,0-0.007,0-0.012,0c-0.242-0.003-24.21-0.502-24.612-25.351 c-0.369-22.842,12.028-29.045,19.451-30.709c6.982-1.569,22.732-0.5,26.838,12.798c0.206,0.666-0.168,1.375-0.834,1.58 c-0.667,0.205-1.375-0.167-1.581-0.834c-3.939-12.76-19.829-11.986-23.871-11.079c-11.522,2.585-17.728,12.6-17.477,28.202 c0.362,22.361,21.222,22.855,22.11,22.865c0.697,0.008,1.256,0.579,1.25,1.275C238.16,384.311,237.596,384.869,236.905,384.869z"/><path fill="#f2f2f2" d="M299.984,384.357c-0.005,0-0.008,0-0.013,0c-0.242-0.002-24.21-0.502-24.612-25.351 c-0.368-22.839,12.028-29.044,19.45-30.71c6.985-1.57,22.732-0.498,26.838,12.799c0.208,0.666-0.168,1.375-0.834,1.579 c-0.666,0.208-1.374-0.167-1.579-0.834c-3.94-12.759-19.831-11.983-23.872-11.079c-11.521,2.588-17.728,12.604-17.477,28.203 c0.362,22.361,21.223,22.856,22.11,22.867c0.697,0.007,1.256,0.578,1.25,1.275C301.238,383.801,300.675,384.357,299.984,384.357z"/><path fill="#f2f2f2" d="M363.248,383.845c-0.002,0-0.007,0-0.01,0c-0.243-0.003-24.211-0.502-24.612-25.351 c-0.37-22.839,12.027-29.045,19.449-30.71c6.981-1.567,22.732-0.499,26.838,12.798c0.206,0.666-0.168,1.375-0.835,1.58 c-0.664,0.207-1.373-0.167-1.579-0.834c-3.94-12.76-19.831-11.986-23.87-11.079c-11.522,2.587-17.729,12.604-17.477,28.204 c0.36,22.36,21.221,22.855,22.109,22.865c0.697,0.008,1.257,0.578,1.25,1.275C364.504,383.287,363.941,383.845,363.248,383.845z"/><path fill="#f2f2f2" d="M426.143,383.334c-0.003,0-0.008,0-0.011,0c-0.241-0.002-24.211-0.501-24.612-25.35 c-0.37-22.839,12.027-29.045,19.45-30.71c6.986-1.569,22.733-0.497,26.839,12.799c0.205,0.666-0.168,1.374-0.835,1.579 c-0.665,0.207-1.373-0.166-1.581-0.834c-3.938-12.758-19.83-11.984-23.869-11.078c-11.523,2.586-17.729,12.602-17.477,28.201 c0.361,22.417,21.22,22.858,22.107,22.866c0.697,0.006,1.259,0.575,1.251,1.274C427.4,382.775,426.836,383.334,426.143,383.334z"/><path fill="#f2f2f2" d="M489.223,382.823c-0.004,0-0.008,0-0.011,0c-0.242-0.003-24.212-0.502-24.613-25.351 c-0.369-22.842,12.027-29.045,19.451-30.709c6.981-1.568,22.732-0.503,26.838,12.797c0.206,0.666-0.168,1.375-0.834,1.58 s-1.375-0.167-1.58-0.834c-3.941-12.764-19.833-11.982-23.871-11.078c-11.523,2.584-17.729,12.6-17.477,28.203 c0.36,22.36,21.222,22.855,22.11,22.865c0.695,0.008,1.256,0.578,1.248,1.275C490.478,382.266,489.915,382.823,489.223,382.823z"/><path fill="#f2f2f2" d="M552.303,382.311c-0.005,0-0.007,0-0.013,0c-0.241-0.002-24.21-0.502-24.612-25.35 c-0.367-22.842,12.029-29.045,19.451-30.709c6.985-1.57,22.733-0.498,26.839,12.799c0.206,0.666-0.168,1.374-0.835,1.578 c-0.664,0.207-1.372-0.166-1.579-0.834c-3.94-12.758-19.831-11.982-23.872-11.078c-11.521,2.584-17.729,12.6-17.477,28.203 c0.361,22.36,21.222,22.855,22.11,22.865c0.697,0.007,1.256,0.578,1.25,1.275C553.558,381.754,552.994,382.311,552.303,382.311z"/><path fill="#f2f2f2" d="M613.316,381.816c-0.002,0-0.007,0-0.01,0c-0.243-0.002-24.211-0.502-24.612-25.35 c-0.37-22.842,12.027-29.045,19.451-30.709c6.982-1.57,22.731-0.498,26.838,12.798c0.204,0.666-0.168,1.374-0.836,1.579 c-0.665,0.207-1.373-0.166-1.58-0.834c-3.938-12.758-19.829-11.982-23.869-11.078c-11.523,2.583-17.73,12.6-17.477,28.201 c0.359,22.361,21.221,22.856,22.108,22.866c0.697,0.007,1.258,0.579,1.25,1.275C614.572,381.259,614.01,381.816,613.316,381.816z"/><path fill="#f2f2f2" d="M678.461,381.289c-0.002,0-0.007,0-0.01,0c-0.243-0.003-24.211-0.502-24.612-25.351 c-0.37-22.842,12.027-29.045,19.45-30.71c6.983-1.567,22.732-0.498,26.837,12.799c0.206,0.666-0.168,1.375-0.835,1.58 c-0.664,0.204-1.373-0.168-1.579-0.834c-3.94-12.76-19.831-11.986-23.87-11.079c-11.522,2.583-17.729,12.6-17.477,28.202 c0.36,22.361,21.221,22.855,22.109,22.865c0.697,0.008,1.257,0.578,1.25,1.275C679.717,380.73,679.154,381.289,678.461,381.289z"/><path fill="#f2f2f2" d="M741.543,380.777c-0.005,0-0.008,0-0.013,0c-0.242-0.002-24.21-0.502-24.612-25.352 c-0.369-22.836,12.028-29.042,19.45-30.709c6.985-1.57,22.732-0.498,26.838,12.799c0.206,0.666-0.167,1.375-0.834,1.579 c-0.666,0.207-1.374-0.167-1.58-0.834c-3.939-12.758-19.83-11.983-23.871-11.079c-11.522,2.588-17.728,12.604-17.477,28.203 c0.363,22.416,21.221,22.859,22.108,22.866c0.698,0.007,1.258,0.577,1.253,1.274C742.799,380.219,742.234,380.777,741.543,380.777z"/><path fill="#e6e2d6" d="M968.605,585.406c-7.378,6.165-20.78,9.084-37.495,9.716c-30.104,1.112-70.96-5.205-106.697-13.404 c-26.947-6.177-50.989-13.429-65.314-19.354c-4.066-1.666-7.353-3.246-9.689-4.648c-16.424,14.528-30.004,36.788-40.273,33.237 c-2.755-0.96-6.418-3.209-10.36-6.101c-10.713-7.859-23.485-20.453-25.797-24.609c-1.705-3.058-7.604,1.566-13.795,6.492 c-5.293,4.221-10.788,8.667-13.998,8.667c-5.633,0,2.451-26.214,19.216-45.202c3.878-4.407,8.236-8.438,12.999-11.646 c25.266-17.055,17.687-12.633,17.687-12.633s-6.001-12.002,14.049-13.266c20.06-1.264,43.432,12.633,43.432,12.633 s2.35-1.111,6.531-2.867c9.677-4.08,29.145-11.622,51.657-16.713c4.446-1.011,9.021-1.934,13.657-2.703 c7.742-1.289,15.664-2.187,23.534-2.49c0,0,15.641-3.209,34.943-2.071C905.087,499.805,945.967,542.277,968.605,585.406z"/><path fill="#e6e2d6" d="M950.25,304.296c-39.353,29.056-102.619,65.666-111.146,55.712c-8.224-9.589-13.542-61.727-15.853-89.886 c13.593,1.34,23.813,3.866,24.064,2.085c0.632-4.422,2.556-23.746,2.556-23.746s-16.948-1.043-27.188-16.598 c-10.165-15.445-11.927-35.398-11.927-43.932c9.045,0.91,17.724,1.479,23.926,1.314c16.424-0.418,53.06-5.054,61.902-18.104 c8.844-13.051,23.586-10.523,27.793,4.207c4.207,14.742-10.106,14.326-9.26,19.796c0.619,4.093-7.313,28.399-7.313,28.399 s-4.764,1.92-6.798,3.84c0,0,3.79,45.239,9.689,52.819C913.323,283.59,930.807,292.584,950.25,304.296z"/><path fill="#002600" d="M610.242,954.382l-77.276,83.391c0,0-129.312,58.112-202.458,22.739 c-73.158-35.372,70.203-92.221,119.169-90.958l48.321-74.636C523.43,912.326,571.132,944.717,610.242,954.382z"/><path fill="#918e81" d="M753.453,799.854l-142.25,153.504l-0.947,1.024c0,0,0,0-0.014,0c-39.11-9.665-86.813-42.056-112.244-59.464 l52.844-81.609l8.718-13.455H753.453z"/><path fill="#918e81" d="M1010.156,869.752c-2.235,10.789-50.128,61.563-90.023,102.947l-1.971,2.047 c-45.694-3.423-98.513-15.475-137.195-24.471c22.437-45.162,45.808-74.207,45.808-74.207l-33.971-65.881l-5.33-10.334h19.038 c9.878,0,17.901-8.01,17.901-17.9V621.146c43.596,2.488,81.925-1.088,112.876-6.545 C962.644,694.797,1012.897,856.5,1010.156,869.752z"/><path fill="#002600" d="M743.104,1068.092c6.077-44.418,21.73-85.298,37.862-117.816c38.683,8.996,91.501,21.048,137.195,24.471 c-24.647,25.557-45.832,47.16-50.634,52.92c-12.633,15.16,70.745,13.896,87.168,40.426S819.548,1132.521,743.104,1068.092z"/><path fill="#002600" d="M937.289,614.602c-30.951,5.457-69.28,9.033-112.876,6.545v-39.429 c35.737,8.199,76.593,14.517,106.697,13.404C932.931,600.844,935.014,607.389,937.289,614.602z"/><path fill="#e6e2d6" d="M668.419,296.207c-11.408,10.624-9.475,17.799-8.578,19.808c-4.119-3.853-8.643-5.608-13.303-3.79 c-0.367-2.438-0.771-4.459-1.188-5.912c-3.789-13.264-16.916,0-16.916,0c0.102,0.177,0.024,0.783-0.164,1.756 c-1.882-5.521-6.645-4.66-12.607,3.438c0,0-1.846,1.881-4.283,5.09c0,0-38.341,14.099-32.506,24.017 c3.462,5.874,13.38,3.739,21.4-0.847c-1.174,6.076-0.896,12.596,2.124,18.975c6.682,14.162,14.01,4.309,19.29-9.791 c0.494,8.59,3.096,16.158,9.754,19.948c13.694,7.794,17.028-15.893,16.638-36.851c5.495,13.453,14.225,30.951,24.318,36.851 c9.791,5.735,6.442-19.758-2.767-38.606c2.994-5.18,9.083-14.023,14.25-23.889C692.094,290.697,681.987,283.573,668.419,296.207z"/><path fill="#002600" d="M962.353,122.228c-6.936,13.87-22.36,20.604-36.308,23.863c3.551,7.302,5.786,16.36,5.912,27.578 c0.483,44.409-29.012,53.052-30.951,53.716c2.691-7.984,14.73-28.146,14.111-32.239c-0.847-5.47,13.467-5.054,9.26-19.796 c-4.207-14.73-18.949-17.258-27.793-4.207c-8.843,13.05-45.479,17.686-61.902,18.104c-6.202,0.164-14.881-0.404-23.926-1.314 c-0.847-1.162-1.845-1.743-3.235-1.629c-7.579,0.631-25.897-3.791-25.897-3.791c12.633-82.115,92.222-66.955,92.222-66.955 s0.328,0,0.947,0.025l-1.313-1.857c0,0-7.454-35.41,25.127-51C931.188,47.148,976.526,93.891,962.353,122.228z"/><path fill="#636155" d="M686.838,829.326c13.858-24.002-135.996-16.018-135.996-16.018l8.718-13.455h193.894l-142.25,153.504 C618.896,921.308,674.975,849.867,686.838,829.326z"/><path fill="#636155" d="M1010.156,869.752c-2.235,10.789-50.128,61.563-90.023,102.947c1.972-28.626,57.152-97.603,63.62-110.526 c7.579-15.16-45.479-199.603-46.464-209.987c-0.986-10.397-76.077-8.565-86.877,1.023c-10.803,9.575-4.36,130.639-11.94,146.645 c-5.203,11.004-30.406,11.256-45.668,10.334l-5.33-10.334h19.038c9.878,0,17.901-8.01,17.901-17.9V621.146 c43.596,2.488,81.925-1.088,112.876-6.545C962.644,694.797,1012.897,856.5,1010.156,869.752z"/><path fill="#002600" d="M825.904,230.993c-1.293,0-2.432-0.308-3.253-1.13c-1.261-1.266-1.39-3.336-0.393-6.33 c3.402-10.205,2.656-24.041,2.647-24.179c-0.039-0.696,0.493-1.294,1.189-1.333c0.693-0.026,1.294,0.492,1.335,1.188 c0.032,0.585,0.783,14.451-2.773,25.123c-0.895,2.682-0.449,3.514-0.218,3.747c1.086,1.088,5.343-0.317,7.63-1.072 c1.713-0.566,2.719-0.886,3.462-0.886c0.698,0,1.263,0.564,1.263,1.264c0,0.697-0.564,1.263-1.263,1.263 c-0.373,0-1.646,0.421-2.67,0.759C830.628,230.143,828.055,230.993,825.904,230.993z"/><path fill="#002600" d="M909.987,184.95c-0.423,0-0.837-0.212-1.076-0.599c-5.034-8.144,0.684-14.89,4.409-17.318 c0.585-0.381,1.367-0.215,1.75,0.369c0.38,0.583,0.216,1.363-0.368,1.746l0,0c-0.354,0.233-8.63,5.807-3.642,13.873 c0.367,0.595,0.183,1.373-0.409,1.74C910.443,184.89,910.214,184.95,909.987,184.95z"/><path fill="#002600" d="M857.436,250.677c-4.712,0-7.653-0.915-7.956-1.016c-0.664-0.216-1.026-0.929-0.81-1.593 c0.216-0.662,0.928-1.023,1.59-0.809l0,0c0.184,0.061,18.463,5.646,38.743-13.186c0.512-0.475,1.31-0.446,1.785,0.066 c0.476,0.512,0.445,1.311-0.065,1.785C877.451,248.25,865.103,250.677,857.436,250.677z"/><path fill="#002600" d="M608.823,366.934c-1.406,0-4.007-0.352-6.336-2.584c-4.03-3.861-5.322-11.393-3.842-22.387 c3.367-24.988,24.588-37.938,25.489-38.478c0.599-0.356,1.373-0.161,1.732,0.436c0.357,0.599,0.164,1.374-0.436,1.733 c-0.21,0.125-21.081,12.891-24.281,36.646c-1.703,12.641,0.737,17.976,3.084,20.225c2.412,2.309,5.154,1.852,5.182,1.847 c0.692-0.127,1.345,0.335,1.466,1.021c0.123,0.687-0.335,1.343-1.021,1.466C609.811,366.867,609.427,366.934,608.823,366.934z"/><path fill="#002600" d="M634.077,373.516c-0.826,0-1.696-0.107-2.583-0.361c-4.392-1.266-9.877-6.477-11.066-24.119 c-0.55-44.057,13.011-48.206,13.589-48.361c0.675-0.182,1.366,0.219,1.549,0.892c0.178,0.667-0.211,1.354-0.872,1.542 c-0.229,0.076-12.257,4.479-11.741,45.826c1.055,15.627,5.379,20.409,8.82,21.655c3.319,1.208,6.292-0.661,6.573-0.956 c0.41-0.564,1.183-0.672,1.748-0.258c0.564,0.409,0.673,1.22,0.264,1.785C639.763,371.979,637.217,373.516,634.077,373.516z"/><path fill="#002600" d="M648.095,338.335c-0.013,0-0.024,0-0.036,0c-0.696-0.021-1.247-0.601-1.228-1.298 c0.134-4.906-1.534-24.508-1.552-24.705c-0.06-0.694,0.457-1.307,1.151-1.365c0.694-0.07,1.307,0.455,1.365,1.15 c0.069,0.813,1.698,19.94,1.56,24.988C649.338,337.792,648.775,338.335,648.095,338.335z"/><path fill="#002600" d="M671.804,336.385c-0.518,0-1.004-0.321-1.189-0.836c-3.067-8.531-13.299-20.013-13.401-20.127 c-0.465-0.52-0.422-1.318,0.098-1.785c0.521-0.466,1.318-0.42,1.784,0.1c0.434,0.483,10.661,11.961,13.897,20.957 c0.235,0.657-0.104,1.38-0.762,1.617C672.09,336.361,671.944,336.385,671.804,336.385z"/><path fill="#002600" d="M695.088,507.183c-0.468,0-0.918-0.261-1.137-0.71c-0.306-0.629-0.044-1.385,0.584-1.689 c0.413-0.202,10.301-4.936,23.686-4.418c0.698,0.025,1.241,0.613,1.215,1.311s-0.587,1.257-1.312,1.214 c-12.769-0.47-22.389,4.119-22.485,4.166C695.462,507.143,695.274,507.183,695.088,507.183z"/><path fill="#002600" d="M848.052,220.92c-12.763,0-23.146-10.385-23.146-23.146c0-12.764,10.384-23.146,23.146-23.146 s23.146,10.383,23.146,23.146C871.198,210.535,860.814,220.92,848.052,220.92z M848.052,177.152c-11.37,0-20.62,9.251-20.62,20.621 c0,11.369,9.25,20.619,20.62,20.619s20.62-9.25,20.62-20.619C868.672,186.403,859.422,177.152,848.052,177.152z"/><path fill="#002600" d="M807.57,220.92c-10.523,0-19.085-10.385-19.085-23.146c0-12.764,8.562-23.146,19.085-23.146 c10.522,0,19.083,10.383,19.083,23.146C826.653,210.535,818.093,220.92,807.57,220.92z M807.57,177.152 c-9.131,0-16.559,9.251-16.559,20.621c0,11.369,7.428,20.619,16.559,20.619c9.129,0,16.557-9.25,16.557-20.619 C824.127,186.403,816.699,177.152,807.57,177.152z"/><path fill="#636155" d="M847.054,236.713c-5.88,0.283-21.646-6.377-17.021,0.893c3.314,3.9,0.158,4.152,4.173,4.547 C838.245,242.548,847.238,239.641,847.054,236.713"/><path fill="#FFF" d="M807.567,951.539c-0.224,0-0.451-0.059-0.656-0.185c-0.596-0.364-0.783-1.143-0.419-1.737 c1.616-2.644,32.419-52.924,51.356-77.29c-0.711-0.502-1.369-1.153-1.968-1.953c-8.552-11.403-21.051-64.257-21.579-66.503 c-0.16-0.678,0.262-1.357,0.94-1.518c0.681-0.158,1.359,0.261,1.52,0.941c0.128,0.543,12.902,54.58,21.14,65.564 c0.469,0.624,0.974,1.116,1.514,1.477c4.042-5.063,7.444-8.752,9.76-10.268c1.166-0.764,4.716-3.091,6.202-0.921 c1.813,2.646-3.093,9.134-7.158,12.05c-2.884,2.068-5.646,2.795-8.04,2.208c-18.859,24.194-51.132,76.877-51.531,77.53 C808.409,951.324,807.995,951.539,807.567,951.539z M873.234,860.822c-0.407,0.101-1.228,0.412-2.677,1.36 c-2.022,1.323-4.982,4.494-8.527,8.886c0.81-0.03,1.684-0.262,2.622-0.69C869.319,868.245,872.937,862.607,873.234,860.822z"/><path fill="#FFF" d="M780.967,1019.489c-0.01,0-0.022,0-0.032,0c-0.698-0.019-1.248-0.599-1.231-1.296l0.658-25.476 c0.011-0.405,0.213-0.78,0.546-1.009l27.025-18.6l-18.574-6.049c-0.664-0.216-1.026-0.929-0.811-1.593 c0.216-0.663,0.928-1.024,1.593-0.811l21.006,6.841c0.458,0.149,0.791,0.545,0.86,1.021s-0.139,0.95-0.535,1.223l-28.603,19.685 l-0.639,24.832C782.213,1018.945,781.65,1019.489,780.967,1019.489z"/><path fill="#FFF" d="M857.646,1092.196c-17.701,0-33.39-2.63-46.132-5.942c-32.416-8.423-53.273-22.976-53.481-23.121 c-0.569-0.402-0.705-1.191-0.303-1.761c0.401-0.571,1.19-0.706,1.76-0.305c0.204,0.144,20.759,14.469,52.756,22.767 c29.484,7.646,75.012,11.588,124.48-13.035c0.624-0.313,1.382-0.057,1.692,0.568s0.057,1.383-0.567,1.694 C909.024,1087.41,881.511,1092.196,857.646,1092.196z"/><path fill="#FFF" d="M610.242,933.154c-0.229,0-0.46-0.061-0.669-0.191c-0.592-0.369-0.771-1.148-0.401-1.74 c2.605-4.175,63.981-102.293,77.108-108.742c0.625-0.307,1.384-0.051,1.69,0.578c0.309,0.625,0.049,1.383-0.576,1.689 c-9.991,4.908-54.134,72.669-76.08,107.813C611.075,932.943,610.663,933.154,610.242,933.154z"/><path fill="#FFF" d="M550.842,1002.505c-0.698,0-1.263-0.565-1.263-1.263v-9.2c0-0.376,0.166-0.73,0.454-0.972l30.479-25.408 l-8.758-11.541c-0.422-0.555-0.313-1.348,0.243-1.77c0.555-0.421,1.347-0.313,1.769,0.242l9.488,12.502 c0.408,0.537,0.322,1.301-0.197,1.734l-30.952,25.804v8.608C552.105,1001.939,551.54,1002.505,550.842,1002.505z"/><path fill="#FFF" d="M391.855,1066.872c-4.562,0-8.713-0.19-12.466-0.506c-27.401-2.304-39.755-11.362-40.267-11.747 c-0.558-0.418-0.67-1.208-0.253-1.768c0.417-0.559,1.209-0.672,1.768-0.255c0.121,0.091,12.449,9.075,39.23,11.273 c24.774,2.036,67.318-1.485,129.287-29.81c0.635-0.29,1.385-0.012,1.674,0.623c0.29,0.635,0.012,1.384-0.624,1.674 C456.938,1060.706,417.81,1066.872,391.855,1066.872z"/><path fill="#FFF" d="M795.862,177.152c-0.015,0-0.027,0-0.041,0c-0.696-0.021-1.244-0.605-1.222-1.303 c0.199-6.4,19.033-37.779,46.121-44.834c0.678-0.171,1.366,0.23,1.541,0.904c0.176,0.676-0.229,1.365-0.904,1.541 c-25.875,6.739-44.063,37.098-44.234,42.469C797.103,176.613,796.541,177.152,795.862,177.152z"/><path fill="#FFF" d="M810.755,169.354c-0.253,0-0.509-0.075-0.729-0.232c-0.57-0.404-0.703-1.191-0.301-1.76 c0.189-0.267,4.757-6.621,15.717-14.331c0.57-0.401,1.357-0.265,1.76,0.308c0.402,0.57,0.264,1.357-0.307,1.76 c-10.566,7.432-15.065,13.664-15.108,13.726C811.539,169.17,811.15,169.354,810.755,169.354z"/><path fill="#FFF" d="M937.289,120.764c-0.321,0-0.642-0.12-0.889-0.365c-0.496-0.489-0.501-1.289-0.01-1.785 c6.471-6.551,9.692-13.598,9.573-20.942c-0.194-12.116-9.451-21.04-9.545-21.128c-0.506-0.482-0.526-1.281-0.046-1.787 c0.479-0.506,1.281-0.527,1.786-0.047c0.413,0.393,10.119,9.754,10.332,22.921c0.129,8.05-3.336,15.708-10.304,22.759 C937.94,120.639,937.614,120.764,937.289,120.764z"/><path fill="#FFF" d="M942.261,127.841c-0.493,0-0.962-0.291-1.166-0.774c-0.27-0.645,0.033-1.385,0.678-1.653 c19.07-7.992,12.983-39.575,12.919-39.894c-0.136-0.684,0.308-1.35,0.991-1.486c0.686-0.132,1.35,0.307,1.486,0.99 c0.278,1.381,6.557,33.929-14.421,42.719C942.589,127.811,942.424,127.841,942.261,127.841z"/><path fill="#FFF" d="M953.314,478.036c-0.183,0-0.367-0.039-0.542-0.121c-0.631-0.301-0.898-1.053-0.599-1.684 c0.187-0.393,18.614-39.57,12.657-59.082c-0.204-0.667,0.171-1.373,0.84-1.576c0.665-0.209,1.372,0.173,1.576,0.839 c6.243,20.446-12.011,59.261-12.791,60.903C954.239,477.771,953.786,478.036,953.314,478.036z"/></svg>