<svg xmlns="http://www.w3.org/2000/svg" version="1.0" viewBox="0 0 1133.859 1133.858">
  <path
    fill="#55ab67"
    d="M24.893,897.66c0,3.849,3.12,6.97,6.969,6.97h94.297l-39.658,128.398l126.72-128.398h612.958 c3.848,0,6.969-3.121,6.969-6.97V560.064c0-3.849-3.121-6.97-6.969-6.97H31.862c-3.85,0-6.969,3.121-6.969,6.97V897.66z"
  />
  <path
    fill="#f2f2f2"
    d="M749.805,238.947l-2.111-13.733l13.73-2.111c1.765-0.271,2.972-1.918,2.701-3.682 c-0.272-1.763-1.918-2.973-3.683-2.701l-13.73,2.111l-2.112-13.732c-0.271-1.76-1.92-2.972-3.683-2.698 c-1.761,0.269-2.971,1.92-2.7,3.682l2.113,13.73l-13.731,2.111c-1.763,0.272-2.975,1.921-2.701,3.684 c0.271,1.761,1.921,2.97,3.684,2.701l13.729-2.113l2.112,13.731c0.271,1.762,1.923,2.972,3.682,2.701 C748.868,242.357,750.078,240.709,749.805,238.947z"
  />
  <path
    fill="#f2f2f2"
    d="M367.089,211.75l-2.113-13.731l13.732-2.11c1.764-0.272,2.972-1.919,2.701-3.683 c-0.272-1.762-1.918-2.974-3.681-2.702l-13.733,2.112l-2.11-13.73c-0.272-1.763-1.919-2.974-3.684-2.701 c-1.76,0.27-2.972,1.922-2.701,3.683l2.111,13.731l-13.729,2.108c-1.763,0.273-2.975,1.922-2.703,3.684 c0.272,1.764,1.921,2.974,3.684,2.703l13.729-2.112l2.112,13.73c0.27,1.76,1.922,2.972,3.682,2.7 C366.15,215.161,367.36,213.512,367.089,211.75z"
  />
  <path
    fill="#f2f2f2"
    d="M496.434,286.775l-2.111-13.729l13.731-2.113c1.764-0.271,2.969-1.919,2.7-3.68 c-0.271-1.765-1.918-2.974-3.682-2.703l-13.731,2.11l-2.111-13.729c-0.271-1.763-1.919-2.972-3.683-2.701 c-1.762,0.27-2.974,1.921-2.701,3.684l2.109,13.729l-13.728,2.113c-1.763,0.271-2.975,1.92-2.701,3.683 c0.269,1.762,1.921,2.972,3.683,2.701l13.731-2.113l2.11,13.733c0.271,1.761,1.919,2.969,3.682,2.7 C495.498,290.189,496.705,288.536,496.434,286.775z"
  />
  <path
    fill="#f2f2f2"
    d="M372.793,420.416l-2.113-13.73l13.733-2.112c1.763-0.271,2.971-1.92,2.699-3.682 c-0.27-1.762-1.918-2.973-3.681-2.7l-13.73,2.11l-2.113-13.731c-0.271-1.761-1.919-2.972-3.683-2.699 c-1.76,0.27-2.972,1.921-2.699,3.681l2.109,13.732l-13.729,2.109c-1.761,0.274-2.973,1.922-2.702,3.684 c0.272,1.764,1.922,2.972,3.685,2.701l13.729-2.111l2.113,13.731c0.269,1.76,1.92,2.971,3.681,2.701 C371.857,423.828,373.065,422.18,372.793,420.416z"
  />
  <path
    fill="#f2f2f2"
    d="M701.341,439.404l-2.112-13.73l13.73-2.112c1.765-0.271,2.973-1.919,2.701-3.682 c-0.271-1.764-1.919-2.972-3.683-2.701l-13.729,2.108l-2.113-13.729c-0.27-1.761-1.919-2.972-3.681-2.7s-2.972,1.922-2.702,3.682 l2.112,13.732l-13.73,2.11c-1.761,0.271-2.975,1.919-2.702,3.684c0.271,1.761,1.921,2.971,3.684,2.701l13.731-2.114l2.109,13.733 c0.272,1.761,1.924,2.972,3.684,2.701C700.402,442.817,701.613,441.167,701.341,439.404z"
  />
  <path
    fill="#e6e2d6"
    d="M983.628,504.713c-3.293,9.417-16.865,18.4-16.865,18.4s-58.575,45.263-76.572,55.308 c-2.176,1.218-3.641,2.014-4.251,2.256c-5.653,2.34-13.645,5.635-13.645,5.635s-36.22-20.217-62.576-46.569 c-19.422-19.424-22.98-22.982-23.509-23.512c0,0-4.719,7.993-15.536,8.93c-10.821,0.934-7.993,2.359-10.821,7.054 c-2.826,4.699-6.119,10.354-7.524,9.417c-1.403-0.934,1.405-9.417,1.405-15.537c0-6.101-6.101,9.417-9.396,13.18 c-3.295,3.761-5.238,2.744-7.993,0.935c-2.826-1.857-2.765-3.274-2.826-3.274c0,0,8.927-19.301,11.756-28.225 c2.826-8.949,18.342-25.891,23.997-30.589c5.634-4.697,16.939-12.711,34.815,0c16.554,11.776,62.516,35.203,69.244,38.62 c0.551,0.286,0.835,0.427,0.835,0.427s41.405-82.32,57.878-96.902c0,0,20.673-13.584,47.496,5.229 C1006.363,444.304,986.923,495.317,983.628,504.713z"
  />
  <path
    fill="#002600"
    d="M992.728,511.046c-3.295,9.416-19.302,18.346-19.302,18.346s-65.238,38.984-83.235,49.029 c-3.58-16.329-11.368-43.275-16.86-61.681c0.551,0.286,0.835,0.427,0.835,0.427s41.405-82.32,57.878-96.902 c0,0,23.977-24.466,50.802-5.654C1009.668,433.421,996.021,501.649,992.728,511.046z"
  />
  <path
    fill="#002600"
    d="M833.15,546.254c0,3.778-3.065,6.841-6.845,6.841H672.05c-3.779,0-6.845-3.063-6.845-6.841l0,0 c0-3.779,3.065-6.842,6.845-6.842h154.255C830.084,539.412,833.15,542.475,833.15,546.254L833.15,546.254z"
  />
  <path
    fill="#002600"
    d="M672.304,552.543c-3.477,1.486-7.495-0.127-8.981-3.603l-60.635-141.838 c-1.486-3.474,0.127-7.496,3.602-8.981l0,0c3.475-1.486,7.498,0.126,8.982,3.602l60.635,141.841 C677.393,547.038,675.78,551.058,672.304,552.543L672.304,552.543z"
  />
  <path
    fill="#002600"
    d="M831.08,392.52c-5.4,0-11.174-7.592-13.427-17.656c-2.483-11.108,0.069-20.82,5.814-22.108 c0.408-0.091,0.829-0.137,1.253-0.137c5.402,0,11.175,7.592,13.428,17.657c2.484,11.111-0.071,20.819-5.815,22.106 C831.924,392.474,831.503,392.52,831.08,392.52z M824.72,354.012c-0.322,0-0.64,0.034-0.947,0.104 c-4.816,1.079-6.996,10.442-4.759,20.442c2.079,9.291,7.38,16.567,12.065,16.567c0.321,0,0.642-0.035,0.948-0.104 c4.816-1.078,6.996-10.438,4.759-20.439C834.708,361.289,829.408,354.012,824.72,354.012z"
  />
  <path
    fill="#002600"
    d="M939.61,426.081c0,0-15.547,17.393-18.817,35.283c-3.268,17.891-10.186,126.55-15.206,132.194 c-5.021,5.644,91.417,4.705,135.168,63.506c9.882,13.175,24.464,31.05,25.876,37.168c1.41,6.114,56.922-84.682-7.527-204.641 C994.652,369.629,942.046,423.14,939.61,426.081z"
  />
  <path
    fill="#e6e2d6"
    d="M837.518,337.632c1.271-1.37-9.724,10.341-0.932,38.584c5.044,16.195,1.89,30.353,1.89,30.353 s9.369-1.096,13.329-3.583c7.168,6.022,22.217,7.89,40.467-2.336c10.019-5.61,16.53-5.164,16.53-5.164s28.754,35.675,28.754,46.633 s32.879-24.355,32.879-24.355s-48.707-47.489-48.707-53.579c0-6.087,2.073-47.347-14.975-33.952 c-17.047,13.396-32.516-9.882-42.258-8.666C854.755,322.783,837.518,337.632,837.518,337.632z"
  />
  <path
    fill="#002600"
    d="M931.333,377.408c0,0,45.443-43.061-3.011-89.633c-5.539-5.88-11.665-9.476-17.985-11.421 c-28.559-8.793-77.187,14.195-77.187,14.195s-36.76,31.722-41.935,67.004c23.052,21.641,70.743,11.266,93.794,3.268 c23.051-7.996,22.864-13.065,22.864-13.065s0.004-10.077-2.71-13.858c-2.716-3.782,11.152-9.465,13.578,0.056 c2.427,9.521,0.46,25.585,2.986,30.23C924.251,368.83,931.333,377.408,931.333,377.408z"
  />
  <path
    fill="#002600"
    d="M906.21,283.071c0,0-4.049-12.717,8.468-25.874c18.347-19.289,82.327,4.232,58.805,52.689 c-19.556,40.284-40.927,10.35-43.278,5.644C927.851,310.826,906.21,283.071,906.21,283.071z"
  />
  <path
    fill="#e6e2d6"
    d="M1004.845,508.657c-3.296,9.416-16.865,18.4-16.865,18.4s-58.573,45.263-76.572,55.306 c-2.176,1.224-3.641,2.016-4.25,2.261c-5.654,2.336-13.646,5.632-13.646,5.632s-36.221-20.214-62.576-46.568 c-19.421-19.423-22.981-22.981-23.509-23.512c0,0-4.72,7.992-15.538,8.93c-10.818,0.934-7.993,2.359-10.818,7.056 c-2.826,4.697-6.122,10.353-7.524,9.415c-1.402-0.934,1.402-9.415,1.402-15.537c0-6.101-6.102,9.417-9.394,13.179 c-3.296,3.763-5.24,2.744-7.993,0.938c-2.828-1.859-2.767-3.275-2.828-3.275c0,0,8.93-19.3,11.756-28.227 c2.825-8.95,18.346-25.891,23.997-30.586c5.632-4.698,16.94-12.712,34.815,0c16.554,11.774,62.515,35.201,69.246,38.617 c0.548,0.286,0.834,0.428,0.834,0.428s41.404-82.322,57.878-96.904c0,0,20.672-13.582,47.495,5.229 C1027.581,448.249,1008.139,499.264,1004.845,508.657z"
  />
  <path
    fill="#918e81"
    d="M887.533,717.99c-3.783,4.474-28.593,21.314-43.44,37.766c-5.652,6.265-9.863,12.446-10.938,17.895 c-3.927,19.646-8.381,103.899-21.742,158.361c-0.1,0.408-0.203,0.813-0.303,1.219c-0.876,3.499-1.771,6.897-2.666,10.149 c-13.096,47.322-28.268,69.245-28.268,90.07c0,22.27-8.663,38.355-8.663,38.355s-13.604,3.7-33.393,4.941 c-19.809,1.241-77.95,2.461-97.738,0c-19.787-2.48-29.691-14.846-30.93-25.991c-1.241-11.124,8.663-18.547,22.267-19.787 c13.605-1.239,56.903-6.182,59.383-12.363c2.48-6.203,9.905-66.807,8.665-79.173c-0.267-2.541,0.162-13.786,1.097-30.238 c0.711-12.263,1.728-27.434,2.972-44.049c5.163-69.612,14.397-164.584,23.141-178.087c0.325-0.488,0.712-0.997,1.159-1.525 c18.71-21.901,147.623-71.464,147.623-71.464S892.759,711.808,887.533,717.99z"
  />
  <path fill="#002600" d="M913.32,594.872c-0.042,1.281-0.346,1.852-0.956,1.587C911.793,596.216,912.161,595.666,913.32,594.872z" />
  <path
    fill="#002600"
    d="M1013.943,514.992c-3.293,9.414-19.297,18.343-19.297,18.343s-65.239,38.985-83.238,49.028 c-3.579-16.328-11.368-43.274-16.859-61.679c0.548,0.286,0.834,0.428,0.834,0.428s41.404-82.322,57.878-96.904 c0,0,23.977-24.464,50.8-5.652S1017.238,505.595,1013.943,514.992z"
  />
  <path
    fill="#002600"
    d="M811.412,932.012c-0.1,0.408-0.203,0.813-0.303,1.219c-13.606,54.443-30.934,77.952-30.934,100.22 c0,22.27-8.663,38.355-8.663,38.355s-13.604,3.7-33.393,4.941c-19.809,1.241-77.95,2.461-97.738,0 c-19.787-2.48-29.691-14.846-30.93-25.991c-1.241-11.124,8.663-18.547,22.267-19.787c13.605-1.239,56.903-6.182,59.383-12.363 c2.48-6.203,9.905-66.807,8.665-79.173c-0.267-2.541,0.162-13.786,1.097-30.238C729.842,915.457,781.946,926.562,811.412,932.012z"
  />
  <path fill="#002600" d="M941.445,836.35c0.143-0.854,0.346-1.181,0.65-0.917C942.319,835.616,942.095,835.922,941.445,836.35z" />
  <path
    fill="#002600"
    d="M855.657,391.459c-7.902,0-15.203-6.979-17.354-16.596c-2.445-10.925,2.646-21.397,11.35-23.347 c0.938-0.21,1.9-0.316,2.861-0.316c7.905,0,15.206,6.98,17.358,16.599c2.442,10.923-2.648,21.396-11.352,23.345 C857.583,391.354,856.619,391.459,855.657,391.459z M852.513,352.594c-0.859,0-1.719,0.095-2.557,0.283 c-7.953,1.78-12.572,11.507-10.293,21.681c2.01,8.986,8.737,15.507,15.993,15.507c0.86,0,1.722-0.095,2.558-0.282 c7.953-1.78,12.572-11.505,10.296-21.679C866.5,359.116,859.772,352.594,852.513,352.594z"
  />
  <path
    fill="#636155"
    d="M844.092,755.756c-5.652,6.265-9.863,12.446-10.938,17.895c-3.927,19.646-8.381,103.899-21.742,158.361 c-0.1,0.408-0.203,0.813-0.303,1.219c-0.876,3.499-1.771,6.897-2.666,10.149c-21.313-18.791-69.164-53.262-104.608-78.234 c5.163-69.612,14.397-164.584,23.141-178.087c0.325-0.488,0.712-0.997,1.159-1.525 C765.879,700.805,808.708,728.991,844.092,755.756z"
  />
  <path
    fill="#918e81"
    d="M1077.069,677.217c0,0-16.98,43.253-56.739,65.523c-39.736,22.248-142.417,21.027-163.463,12.365 c10.33,16.898,27.514,61.578,37.722,97.798c3.255,11.529,5.816,22.207,7.201,30.849c1.095,6.772,2.154,13.789,3.191,20.725 c4.475,29.853,8.502,58.853,12.507,65.869c4.941,8.663-24.099,60.623-41.73,76.71c-17.652,16.084-40.348,28.838-42.604,31.115 c-2.259,2.278-8.44,5.145-22.045,0c-13.606-5.146-11.878-15.031-10.272-29.874c1.606-14.847,20.155-35.874,25.115-49.5 c4.943-13.605,15.641-22.25,7.202-27.209c-5.697-3.338-39.942-41.02-68.291-79.679c-13.605-18.569-25.849-37.381-32.925-52.691 c-21.841-47.202-53.202-113.803-51.96-205.36c64.323-64.324,218.169-40.855,244.789-35.12c10.699,2.297,31.563,8.235,55.051,17.388 C1014.82,629.771,1055.591,650.575,1077.069,677.217z"
  />
  <path
    fill="#636155"
    d="M1077.069,677.217c0,0-16.98,43.253-56.739,65.523c-39.736,22.248-142.417,21.027-163.463,12.365 c10.33,16.898,27.514,61.578,37.722,97.798c3.255,11.529,5.816,22.207,7.201,30.849c1.095,6.772,2.154,13.789,3.191,20.725 c-15.373,1.139-29.304-3.885-34.043-22.188c-11.571-44.741-63.674-166.76-43.031-170.827c20.64-4.066,44.434,10.169,90.131-16.94 c30.115-17.854,51.044-55.091,61.78-78.396C1014.82,629.771,1055.591,650.575,1077.069,677.217z"
  />
  <path
    fill="#002600"
    d="M917.488,970.346c4.941,8.663-24.099,60.623-41.73,76.71c-17.652,16.084-40.348,28.838-42.604,31.115 c-2.259,2.278-8.44,5.145-22.045,0c-13.606-5.146-11.878-15.031-10.272-29.874c1.606-14.847,20.155-35.874,25.115-49.5 c4.943-13.605,15.641-22.25,7.202-27.209c-5.697-3.338-39.942-41.02-68.291-79.679c28.064-8.196,87.427-25.625,129.726-39.006 c3.255,11.529,5.816,22.207,7.201,30.849C907.583,919.627,912.545,961.683,917.488,970.346z"
  />
  <path
    fill="#FFF"
    d="M884.732,944.774c-0.298,0-0.599-0.096-0.854-0.293l-18.438-14.317c-0.482-0.374-0.665-1.018-0.451-1.589 l11.798-31.491l-23.401-13.589c-0.666-0.387-0.894-1.24-0.507-1.906c0.387-0.665,1.24-0.893,1.905-0.507l24.421,14.182 c0.588,0.342,0.844,1.058,0.605,1.695l-11.851,31.632l17.627,13.688c0.608,0.474,0.719,1.349,0.247,1.957 C885.559,944.59,885.149,944.774,884.732,944.774z"
  />
  <path
    fill="#FFF"
    d="M764.863,995.077c-0.563,0-1.091-0.343-1.302-0.9l-10.13-26.704c-0.177-0.465-0.092-0.99,0.222-1.375 l18.19-22.323l-23.597-13.501c-0.667-0.383-0.899-1.234-0.518-1.903c0.383-0.667,1.232-0.9,1.903-0.517l25.023,14.317 c0.354,0.204,0.603,0.552,0.678,0.955c0.075,0.402-0.031,0.818-0.29,1.135l-18.721,22.975l9.843,25.953 c0.273,0.721-0.088,1.524-0.809,1.797C765.195,995.048,765.028,995.077,764.863,995.077z"
  />
  <path
    fill="#FFF"
    d="M875.902,360.805c-0.018,0-0.034,0-0.052-0.002c-0.77-0.026-1.372-0.673-1.343-1.442 c0.598-16.732-18.803-51.498-18.998-51.849c-0.377-0.671-0.138-1.521,0.533-1.897c0.667-0.377,1.521-0.14,1.897,0.533 c0.815,1.453,19.979,35.8,19.353,53.313C877.267,360.212,876.648,360.805,875.902,360.805z"
  />
  <path
    fill="#FFF"
    d="M891.983,354.711c-0.771,0-1.394-0.624-1.394-1.395c0-8.74-13.185-33.83-13.317-34.082 c-0.359-0.681-0.098-1.524,0.583-1.884c0.685-0.356,1.523-0.098,1.884,0.583c0.557,1.056,13.638,25.959,13.638,35.383 C893.376,354.087,892.753,354.711,891.983,354.711z"
  />
  <path
    fill="#FFF"
    d="M930.952,354.711c-0.364,0-0.729-0.143-1.001-0.425c-0.536-0.553-0.522-1.436,0.031-1.972 c22.791-22.063,6.17-43.71,5.451-44.62c-0.477-0.604-0.375-1.479,0.229-1.957c0.6-0.477,1.477-0.378,1.956,0.227 c0.192,0.243,18.938,24.508-5.697,48.355C931.65,354.58,931.302,354.711,930.952,354.711z"
  />
  <path
    fill="#FFF"
    d="M941.146,309.293c-1.755,0-3.496-0.399-5.209-1.2c-0.699-0.325-1-1.155-0.674-1.853 s1.155-0.994,1.852-0.673c2.664,1.243,5.305,1.253,8.077,0.03c13.546-5.977,23.811-38.386,23.914-38.711 c0.228-0.736,1.011-1.149,1.744-0.916c0.735,0.229,1.146,1.012,0.915,1.745c-0.432,1.384-10.748,33.945-25.446,40.432 C944.588,308.911,942.86,309.293,941.146,309.293z"
  />
  <path
    fill="#FFF"
    d="M953.479,284.1c-0.219,0-0.441-0.051-0.648-0.16c-0.681-0.358-0.943-1.2-0.584-1.883 c5.042-9.582,7.232-23.292,7.253-23.43c0.118-0.759,0.82-1.272,1.594-1.16c0.76,0.12,1.279,0.833,1.16,1.593 c-0.091,0.579-2.284,14.309-7.54,24.296C954.464,283.829,953.98,284.1,953.479,284.1z"
  />
  <path
    fill="#FFF"
    d="M921.058,577.3c-0.408,0-0.813-0.178-1.088-0.521c-0.483-0.602-0.386-1.479,0.215-1.96 c2.814-2.257,69.094-55.301,82.891-57.811c0.754-0.146,1.484,0.364,1.62,1.122c0.139,0.758-0.364,1.483-1.122,1.62 c-10.489,1.908-57.991,38.278-81.644,57.243C921.672,577.2,921.363,577.3,921.058,577.3z"
  />
  <path
    fill="#FFF"
    d="M1000.85,540.807c-0.356,0-0.714-0.136-0.985-0.409c-6.326-6.325-21.109-6.46-21.259-6.46 c-0.771-0.003-1.391-0.63-1.388-1.399c0.003-0.768,0.626-1.389,1.395-1.389h0.005c0.653,0.004,16.089,0.148,23.218,7.277 c0.545,0.545,0.545,1.426,0,1.971C1001.563,540.671,1001.208,540.807,1000.85,540.807z"
  />
  <path
    fill="#FFF"
    d="M823.121,864.614c-0.335,0-0.672-0.12-0.938-0.364c-17.095-15.557-55.848-145.071-56.804-189.836 c-0.174-8.182,0.881-13.29,3.228-15.616c14.662-14.532,90.974,4.688,158.3,21.645c5.054,1.273,10.024,2.525,14.878,3.739 c27.288,6.823,49.672,2.829,66.526-11.879c12.593-10.994,17.224-24.203,17.27-24.335c0.249-0.727,1.04-1.116,1.77-0.868 c0.728,0.249,1.117,1.041,0.869,1.77c-0.188,0.55-19.581,54.908-87.111,38.017c-4.854-1.215-9.827-2.467-14.881-3.74 c-63.316-15.947-142.117-35.79-155.656-22.368c-1.204,1.192-2.598,4.516-2.404,13.577c0.994,46.565,40.949,174.233,55.893,187.834 c0.569,0.519,0.611,1.4,0.092,1.97C823.875,864.46,823.499,864.614,823.121,864.614z"
  />
  <path
    fill="#002600"
    d="M757.561,545.548c-0.219,0-0.442-0.051-0.649-0.161c-0.681-0.359-0.941-1.202-0.581-1.883 c0.051-0.098,5.172-9.806,9.153-18.595c0.319-0.7,1.144-1.009,1.846-0.693c0.701,0.318,1.011,1.145,0.694,1.846 c-4.019,8.865-9.177,18.646-9.229,18.744C758.546,545.279,758.062,545.548,757.561,545.548z"
  />
  <path
    fill="#636155"
    d="M869.406,401.647c-3.928,2.077-16.83,2.577-11.342,6.063c3.514,1.604,1.436,2.784,4.307,1.766 C865.255,408.455,870.467,403.591,869.406,401.647"
  />
  <path
    fill="#002600"
    d="M911.712,347.023c-0.42,0-0.834-0.188-1.108-0.547c-2.201-2.878-2.941-5.644-2.201-8.223 c1.262-4.387,6.403-6.358,6.621-6.438c0.723-0.267,1.524,0.096,1.794,0.816c0.271,0.72-0.095,1.523-0.815,1.794 c-0.101,0.038-4.063,1.597-4.924,4.609c-0.478,1.679,0.108,3.613,1.738,5.748c0.469,0.61,0.353,1.486-0.26,1.953 C912.304,346.929,912.007,347.023,911.712,347.023z"
  />
  <path
    fill="#002600"
    d="M1078.217,761.395c0,5.615-4.553,10.167-10.168,10.167h-195.23c-5.614,0-10.167-4.552-10.167-10.167v-2.034 c0-5.616,4.553-10.168,10.167-10.168h195.23c5.615,0,10.168,4.552,10.168,10.168V761.395z"
  />
  <path
    fill="#002600"
    d="M1073.927,1080.958c-0.921,0-1.821-0.454-2.352-1.287L875.93,773.063c-0.829-1.299-0.448-3.021,0.85-3.85 c1.301-0.827,3.023-0.447,3.849,0.85l195.646,306.608c0.829,1.299,0.448,3.021-0.85,3.85 C1074.958,1080.817,1074.44,1080.958,1073.927,1080.958z"
  />
  <path
    fill="#002600"
    d="M853.138,1092.51c-0.521,0-1.048-0.146-1.517-0.451c-1.292-0.837-1.658-2.565-0.818-3.856l206.817-318.159 c0.841-1.292,2.564-1.655,3.857-0.817c1.291,0.838,1.657,2.565,0.817,3.855l-206.817,318.16 C854.945,1092.063,854.049,1092.51,853.138,1092.51z"
  />
  <path
    fill="#002600"
    d="M1043.343,1033.028H894.548c-1.539,0-2.788-1.248-2.788-2.787s1.249-2.788,2.788-2.788h148.795 c1.539,0,2.787,1.249,2.787,2.788S1044.882,1033.028,1043.343,1033.028z"
  />
  <circle cx="138.38" cy="648.401" r="51.879" fill="#FFF" />
  <path
    fill="#FFF"
    d="M462.771,648.104c0,3.851-3.12,6.97-6.969,6.97H236.616c-3.849,0-6.969-3.119-6.969-6.97v-4.907 c0-3.851,3.12-6.97,6.969-6.97h219.187c3.849,0,6.969,3.119,6.969,6.97V648.104z"
  />
  <path
    fill="#FFF"
    d="M676.459,755.012c0,3.849-3.121,6.969-6.97,6.969H93.471c-3.85,0-6.97-3.12-6.97-6.969v-0.941 c0-3.851,3.12-6.97,6.97-6.97H669.49c3.849,0,6.97,3.119,6.97,6.97V755.012z"
  />
  <path
    fill="#FFF"
    d="M676.459,793.813c0,3.851-3.121,6.971-6.97,6.971H93.471c-3.85,0-6.97-3.12-6.97-6.971v-0.941 c0-3.85,3.12-6.97,6.97-6.97H669.49c3.849,0,6.97,3.12,6.97,6.97V793.813z"
  />
  <path
    fill="#FFF"
    d="M676.459,832.057c0,3.85-3.121,6.969-6.97,6.969H93.471c-3.85,0-6.97-3.119-6.97-6.969v-0.942 c0-3.85,3.12-6.97,6.97-6.97H669.49c3.849,0,6.97,3.12,6.97,6.97V832.057z"
  />
  <polygon fill="#918e81" points="239.626 554.886 150.399 554.886 141.774 471.59 249.52 474.312" />
  <polygon fill="#636155" points="239.626 554.886 223.753 554.886 215.128 471.59 249.52 474.312" />
  <path
    fill="#002600"
    d="M190.892,479.392c0.189,0.049,0.37,0.084,0.561,0.108c-32.958-0.666-60.361-23.917-67.349-54.903 c-1.131-5.009-1.727-10.219-1.727-15.57c0-38.453,30.789-69.714,69.076-70.488c-0.191,0.023-0.372,0.062-0.561,0.107 c-25.26,2.191-45.291,32.868-45.291,70.381S165.632,477.203,190.892,479.392z"
  />
  <path
    fill="#002600"
    d="M263.468,409.026c0,38.022-30.121,69.01-67.822,70.439c25.761-1.43,46.338-32.417,46.338-70.439 c0-38.025-20.577-69.022-46.338-70.451C233.347,340.004,263.468,371.001,263.468,409.026z"
  />
  <path
    fill="#55ab67"
    d="M190.892,479.392c-25.26-2.188-45.291-32.853-45.291-70.365s20.03-68.189,45.291-70.381 c-8.615,2.191-15.443,32.868-15.443,70.381S182.277,477.203,190.892,479.392z"
  />
  <path
    fill="#55ab67"
    d="M241.984,409.026c0,38.022-20.577,69.01-46.338,70.439c-0.297,0.024-0.606,0.024-0.906,0.034 c-0.155,0.013-0.31,0.013-0.477,0.013c-0.272,0-0.546,0.012-0.833,0c-0.358,0.012-0.715,0-1.062-0.022 c8.841-1.098,15.944-32.215,15.944-70.464c0-38.253-7.103-69.379-15.944-70.476c0.347-0.024,0.703-0.036,1.062-0.024 c0.287-0.012,0.561,0,0.833,0c0.167-0.012,0.322,0,0.477,0.012c0.3,0.013,0.609,0.013,0.906,0.037 C221.407,340.004,241.984,371.001,241.984,409.026z"
  />
  <path fill="#002600" d="M178.615,450.645c-1.772-10.384-2.898-22.922-3.124-36.534" />
  <path
    fill="#002600"
    d="M175.492,414.11c-0.028-1.68-0.042-3.375-0.042-5.084c0-37.513,6.828-68.189,15.443-70.381 c0.486-0.046,0.978-0.084,1.477-0.095c8.841,1.097,15.944,32.223,15.944,70.476c0,38.249-7.103,69.366-15.944,70.464 c-0.499-0.015-0.99-0.05-1.477-0.099c-5.042-1.281-9.469-12.306-12.277-28.747"
  />
  <path fill="#002600" d="M144.852,371.594c-1.772-1.242-48.147-30.489-48.147-30.489l51.335,25.462L144.852,371.594z" />
  <path fill="#002600" d="M164.35,362.038c-1.507-1.554-41.577-38.97-41.577-38.97l45.651,34.628L164.35,362.038z" />
  <path fill="#002600" d="M140.31,396.017c-2.163-0.079-56.996,0.646-56.996,0.646l56.93-6.596L140.31,396.017z" />
  <path fill="#002600" d="M161.437,413.146c-2.164-0.075-56.997,0.645-56.997,0.645l56.93-6.593L161.437,413.146z" />
  <path fill="#002600" d="M138.768,429.966c-1.995,0.844-51.404,24.617-51.404,24.617l48.833-29.984L138.768,429.966z" />
  <path fill="#002600" d="M149.089,448.063c-1.246,1.599-30.7,43.531-30.7,43.531l26.15-46.737L149.089,448.063z" />
  <path fill="#002600" d="M170.902,459.364c-1.241,1.599-30.698,43.531-30.698,43.531l26.149-46.737L170.902,459.364z" />
  <path fill="#002600" d="M242.41,443.563c1.776,1.243,48.15,30.488,48.15,30.488l-51.338-25.461L242.41,443.563z" />
  <path fill="#002600" d="M222.913,453.119c1.51,1.556,41.577,38.972,41.577,38.972l-45.649-34.631L222.913,453.119z" />
  <path fill="#002600" d="M246.952,419.139c2.164,0.079,56.997-0.646,56.997-0.646l-56.929,6.599L246.952,419.139z" />
  <path fill="#002600" d="M225.827,402.009c2.165,0.08,56.995-0.646,56.995-0.646l-56.929,6.599L225.827,402.009z" />
  <path fill="#002600" d="M248.496,385.19c1.996-0.842,51.404-24.615,51.404-24.615l-48.834,29.984L248.496,385.19z" />
  <path fill="#002600" d="M238.175,367.093c1.242-1.596,30.699-43.532,30.699-43.532L242.726,370.3L238.175,367.093z" />
  <path fill="#002600" d="M216.36,355.793c1.242-1.598,30.698-43.532,30.698-43.532l-26.147,46.736L216.36,355.793z" />
  <path
    fill="#002600"
    d="M176.32,400.458c-0.563,0-1.025-0.453-1.036-1.017c-0.091-5.037-0.071-9.722,0.063-13.927 c0.019-0.572,0.514-1.067,1.069-1.002c0.572,0.016,1.021,0.494,1.003,1.068c-0.134,4.17-0.153,8.819-0.062,13.819 c0.01,0.575-0.446,1.046-1.019,1.058C176.333,400.458,176.327,400.458,176.32,400.458z"
  />
  <path
    fill="#002600"
    d="M179.189,446.05c-0.527,0-0.979-0.401-1.028-0.938c-0.763-7.85-1.388-15.461-1.859-22.622 c-0.036-0.571,0.396-1.064,0.967-1.103c0.566-0.022,1.063,0.395,1.102,0.967c0.47,7.14,1.092,14.73,1.851,22.559 c0.056,0.569-0.362,1.077-0.929,1.13C179.255,446.048,179.222,446.05,179.189,446.05z"
  />
  <path
    fill="#002600"
    d="M154.095,450.01c-0.351,0-0.694-0.18-0.89-0.504c-1.445-2.399-2.713-5.026-3.772-7.81 c-0.204-0.535,0.064-1.134,0.599-1.337c0.534-0.206,1.134,0.063,1.338,0.599c1.016,2.669,2.23,5.188,3.613,7.481 c0.294,0.489,0.136,1.126-0.355,1.423C154.461,449.961,154.278,450.01,154.095,450.01z"
  />
  <path
    fill="#002600"
    d="M150.4,442.362c-0.417,0-0.811-0.252-0.968-0.666c-1.075-2.826-1.967-5.908-2.658-9.157 c-0.119-0.559,0.239-1.108,0.8-1.228c0.561-0.117,1.108,0.238,1.23,0.799c0.664,3.145,1.526,6.123,2.565,8.848 c0.203,0.536-0.066,1.134-0.6,1.338C150.646,442.343,150.523,442.362,150.4,442.362z"
  />
  <path
    fill="#002600"
    d="M146.383,401.252c-0.025,0-0.051,0-0.077-0.002c-0.572-0.042-1-0.538-0.958-1.109 c0.237-3.217,0.572-6.647,0.998-10.197c0.182-1.528,0.423-3.074,0.714-4.592c0.109-0.562,0.65-0.927,1.214-0.823 c0.563,0.109,0.929,0.652,0.822,1.215c-0.284,1.47-0.517,2.965-0.693,4.446c-0.422,3.519-0.754,6.917-0.989,10.103 C147.375,400.837,146.921,401.252,146.383,401.252z"
  />
  <path
    fill="#002600"
    d="M156.398,365.071c-0.182,0-0.366-0.048-0.534-0.148c-0.489-0.296-0.646-0.933-0.353-1.422 c6.852-11.377,14.769-17.373,15.102-17.623c0.458-0.341,1.107-0.247,1.45,0.211c0.343,0.456,0.25,1.106-0.206,1.45 c-0.08,0.059-7.94,6.022-14.57,17.031C157.093,364.893,156.75,365.071,156.398,365.071z"
  />
  <path
    fill="#002600"
    d="M149.087,465.293c-0.211,0-0.426-0.064-0.61-0.2c-0.71-0.519-7.137-5.324-13.655-14.13 c-0.341-0.461-0.244-1.109,0.215-1.45c0.461-0.342,1.109-0.245,1.451,0.219c6.335,8.558,12.526,13.187,13.211,13.688 c0.461,0.336,0.563,0.986,0.226,1.449C149.722,465.145,149.408,465.293,149.087,465.293z"
  />
  <path
    fill="#002600"
    d="M131.076,444.425c-0.355,0-0.705-0.186-0.897-0.517c-3.909-6.742-6.599-13.855-7.994-21.145 c-0.107-0.562,0.261-1.103,0.822-1.212c0.566-0.097,1.107,0.263,1.214,0.823c1.349,7.059,3.957,13.954,7.75,20.493 c0.289,0.494,0.12,1.129-0.375,1.416C131.434,444.38,131.254,444.425,131.076,444.425z"
  />
  <path
    fill="#002600"
    d="M123.028,400.479c-0.053,0-0.108-0.005-0.162-0.012c-0.565-0.091-0.953-0.621-0.863-1.186 c0.824-5.252,2.141-10.354,3.914-15.166c0.197-0.538,0.793-0.812,1.332-0.615c0.535,0.199,0.811,0.795,0.613,1.332 c-1.725,4.683-3.008,9.654-3.811,14.772C123.97,400.115,123.529,400.479,123.028,400.479z"
  />
  <path
    fill="#002600"
    d="M132.373,373.86c-0.18,0-0.36-0.046-0.524-0.14c-0.493-0.29-0.66-0.923-0.372-1.419 c7.296-12.487,15.626-18.285,15.977-18.526c0.473-0.323,1.115-0.204,1.442,0.268c0.323,0.472,0.204,1.117-0.269,1.442 c-0.082,0.055-8.316,5.805-15.36,17.862C133.074,373.677,132.728,373.86,132.373,373.86z"
  />
  <path
    fill="#002600"
    d="M208.042,422.829c-0.034,0-0.071-0.003-0.107-0.006c-0.569-0.06-0.982-0.566-0.923-1.138 c0.545-5.267,0.708-11.275,0.485-17.854c-0.02-0.573,0.429-1.054,1-1.072c0.578-0.049,1.052,0.428,1.071,0.999 c0.226,6.677,0.061,12.778-0.496,18.144C209.018,422.433,208.569,422.829,208.042,422.829z"
  />
  <path
    fill="#002600"
    d="M207.808,393.293c-0.531,0-0.985-0.407-1.032-0.945c-0.697-7.798-1.824-16.153-3.353-24.834 c-0.099-0.563,0.277-1.102,0.841-1.2c0.567-0.109,1.102,0.279,1.2,0.841c1.538,8.738,2.675,17.153,3.375,25.011 c0.051,0.569-0.37,1.072-0.939,1.125C207.867,393.291,207.837,393.293,207.808,393.293z"
  />
  <path
    fill="#002600"
    d="M202.699,359.198c-0.483,0-0.915-0.338-1.014-0.829c-0.986-4.814-1.709-7.771-1.715-7.802 c-0.135-0.556,0.204-1.115,0.758-1.253c0.55-0.136,1.117,0.204,1.253,0.76c0.007,0.03,0.738,3.023,1.734,7.88 c0.114,0.561-0.248,1.109-0.809,1.223C202.837,359.19,202.769,359.198,202.699,359.198z"
  />
  <path
    fill="#002600"
    d="M237.94,438.333c-0.112,0-0.226-0.017-0.338-0.057c-0.542-0.186-0.829-0.777-0.642-1.315 c1.434-4.152,2.531-8.497,3.263-12.914c0.094-0.566,0.625-0.956,1.192-0.854c0.565,0.093,0.947,0.626,0.853,1.19 c-0.75,4.532-1.877,8.99-3.348,13.254C238.771,438.065,238.37,438.333,237.94,438.333z"
  />
  <path
    fill="#002600"
    d="M242.381,412.778h-0.022c-0.571-0.012-1.025-0.484-1.016-1.056c0.09-4.48-0.159-9.09-0.737-13.697 c-0.073-0.566,0.331-1.085,0.897-1.156c0.566-0.06,1.088,0.329,1.159,0.897c0.591,4.707,0.846,9.417,0.753,13.997 C243.405,412.328,242.943,412.778,242.381,412.778z"
  />
  <path
    fill="#002600"
    d="M238.72,384.356c-0.454,0-0.872-0.301-0.997-0.761c-0.721-2.618-1.532-5.153-2.407-7.532 c-0.198-0.538,0.078-1.135,0.616-1.331c0.538-0.197,1.132,0.077,1.329,0.614c0.897,2.434,1.722,5.025,2.459,7.698 c0.15,0.553-0.171,1.123-0.724,1.273C238.904,384.345,238.812,384.356,238.72,384.356z"
  />
  <path
    fill="#002600"
    d="M236.289,376.741c-0.421,0-0.818-0.258-0.973-0.679c-0.941-2.558-1.624-4.012-1.629-4.025 c-0.244-0.519-0.022-1.136,0.495-1.38c0.519-0.245,1.134-0.021,1.38,0.494c0.028,0.063,0.724,1.542,1.699,4.196 c0.197,0.536-0.077,1.133-0.615,1.33C236.529,376.722,236.406,376.741,236.289,376.741z"
  />
  <path
    fill="#918e81"
    d="M232.94,288.051c0.275,39.442-32.433,50.835-39.594,52.861c-0.882,0.25-1.37,0.357-1.37,0.357 s-2.168-8.839,0.691-20.971c0.309-1.275,0.655-2.572,1.083-3.918c4.075-13.03,14.18-28.892,37.951-41.704 C232.524,279.452,232.918,283.906,232.94,288.051z"
  />
  <path
    fill="#636155"
    d="M193.751,316.381c0.561,2.871,1.24,5.633,1.895,6.681c1.597,2.549,11.13-8.909,25.022-15.089 c13.905-6.181,9.879-9.752,11.046-16.102c0.262-1.441,0.704-2.714,1.227-3.82c0.275,39.442-32.433,50.835-39.594,52.861 c-0.263-6.061-0.5-14.042-0.679-20.613L193.751,316.381z"
  />
  <path
    fill="#918e81"
    d="M223.861,320.727c-1.167,3.917-2.68,7.134-4.421,9.768c-10.118,15.36-27.666,10.931-27.666,10.931 s0.023-0.095,0.071-0.275C192.501,338.767,198.113,321.608,223.861,320.727z"
  />
  <path
    fill="#636155"
    d="M219.44,330.494c-10.118,15.36-27.666,10.931-27.666,10.931s0.023-0.095,0.071-0.275 c1.811-2.227,6.136-4.774,15.966-6.644C213.387,333.445,217.034,332.016,219.44,330.494z"
  />
  <path
    fill="#918e81"
    d="M192.964,341.868c0,0-23.679-8.232-27.279-40.157c-0.523-4.635-0.625-9.759-0.169-15.434 c11.818,5.057,19.133,11.695,23.564,18.628C200.308,322.467,192.964,341.868,192.964,341.868z"
  />
  <path
    fill="#636155"
    d="M192.964,341.868c0,0-23.679-8.232-27.279-40.157c10.346,4.943,19.399,28.338,22.853,21.894 c2.105-3.917,1.478-12.188,0.542-18.699C200.308,322.467,192.964,341.868,192.964,341.868z"
  />
  <path
    fill="#918e81"
    d="M192.047,339.818c0,0-6.471,1.475-15.526-0.479c-10.903-2.345-25.56-9.693-37.117-30.627 c-0.368-0.68-0.751-1.384-1.121-2.097C183.98,299.507,192.047,339.818,192.047,339.818z"
  />
  <path
    fill="#636155"
    d="M176.521,339.339c-10.903-2.345-25.56-9.693-37.117-30.627c3.301-0.929,8.949-1.299,17.516,1.812 c15.301,5.559,5.123,9.526,13.979,16.275C175.438,330.252,176.533,335.28,176.521,339.339z"
  />
  <path
    fill="#918e81"
    d="M190.892,340.122c0,0-1.685,3.682-5.99,7.347c-5.184,4.414-14.185,8.794-28.632,6.63 c-0.466-0.072-0.95-0.15-1.434-0.234C168.338,329.079,190.892,340.122,190.892,340.122z"
  />
  <path
    fill="#636155"
    d="M184.902,347.469c-5.184,4.414-14.185,8.794-28.632,6.63c0.774-1.945,2.69-4.82,7.377-7.818 c8.373-5.352,6.521,1.05,13.084-0.735C180.088,344.624,182.934,345.958,184.902,347.469z"
  />
  <path
    fill="#636155"
    d="M240.019,524.517c-0.224,0-0.448-0.072-0.637-0.22l-12.611-9.843l-12.621,9.843 c-0.375,0.293-0.9,0.293-1.276,0l-12.613-9.843l-12.624,9.843c-0.374,0.293-0.899,0.293-1.275,0l-12.615-9.843l-12.613,9.843 c-0.375,0.293-0.9,0.293-1.275,0l-13.252-10.34c-0.45-0.353-0.531-1.004-0.179-1.454c0.351-0.453,1.005-0.53,1.454-0.18 l12.614,9.842l12.614-9.842c0.375-0.293,0.901-0.293,1.275,0L187,522.165l12.624-9.842c0.375-0.293,0.899-0.293,1.276,0 l12.614,9.842l12.622-9.842c0.374-0.293,0.901-0.293,1.274,0l13.248,10.341c0.452,0.351,0.531,1.001,0.18,1.453 C240.632,524.378,240.327,524.517,240.019,524.517z"
  />
  <path
    fill="#636155"
    d="M240.019,537.616c-0.224,0-0.448-0.071-0.637-0.218l-12.611-9.844l-12.621,9.844 c-0.375,0.292-0.9,0.292-1.276,0l-12.613-9.844l-12.624,9.844c-0.374,0.292-0.899,0.292-1.275,0l-12.615-9.844l-12.613,9.844 c-0.375,0.292-0.9,0.292-1.275,0l-13.252-10.341c-0.45-0.352-0.531-1.004-0.179-1.455c0.351-0.452,1.005-0.529,1.454-0.179 l12.614,9.842l12.614-9.842c0.375-0.293,0.901-0.293,1.275,0L187,535.266l12.624-9.842c0.375-0.293,0.899-0.293,1.276,0 l12.614,9.842l12.622-9.842c0.374-0.293,0.901-0.293,1.274,0l13.248,10.341c0.452,0.352,0.531,1.002,0.18,1.454 C240.632,537.479,240.327,537.616,240.019,537.616z"
  />
  <path
    fill="#636155"
    d="M240.019,547.144c-0.224,0-0.448-0.072-0.637-0.22l-12.611-9.843l-12.621,9.843 c-0.375,0.294-0.9,0.294-1.276,0l-12.613-9.843l-12.624,9.843c-0.374,0.294-0.899,0.294-1.275,0l-12.615-9.843l-12.613,9.843 c-0.375,0.294-0.9,0.294-1.275,0l-13.252-10.34c-0.45-0.353-0.531-1.004-0.179-1.455c0.351-0.452,1.005-0.53,1.454-0.179 l12.614,9.842l12.614-9.842c0.375-0.293,0.901-0.293,1.275,0L187,544.792l12.624-9.842c0.375-0.293,0.899-0.293,1.276,0 l12.614,9.842l12.622-9.842c0.374-0.293,0.901-0.293,1.274,0l13.248,10.341c0.452,0.351,0.531,1.001,0.18,1.454 C240.632,547.005,240.327,547.144,240.019,547.144z"
  />
  <path
    fill="#FFF"
    d="M188.699,465.811c-0.617,0-1.202-0.369-1.444-0.979c-0.951-2.381-1.8-5.228-2.518-8.461 c-0.187-0.838,0.341-1.667,1.181-1.854c0.836-0.186,1.668,0.342,1.854,1.181c0.683,3.07,1.48,5.754,2.371,7.981 c0.319,0.796-0.071,1.701-0.867,2.019C189.087,465.774,188.891,465.811,188.699,465.811z"
  />
  <path
    fill="#FFF"
    d="M184.244,444.807c-0.784,0-1.458-0.591-1.542-1.387c-0.194-1.797-0.368-3.702-0.518-5.664 c-0.064-0.855,0.575-1.602,1.431-1.669c0.858-0.065,1.604,0.578,1.669,1.434c0.147,1.93,0.319,3.801,0.508,5.566 c0.091,0.854-0.524,1.618-1.377,1.71C184.357,444.804,184.3,444.807,184.244,444.807z"
  />
  <path
    fill="#FFF"
    d="M183.146,428.454c-0.834,0-1.523-0.662-1.552-1.501c-0.058-1.688-0.104-3.382-0.135-5.079 c-0.016-0.857,0.667-1.566,1.523-1.583c0.848-0.01,1.567,0.668,1.584,1.525c0.031,1.68,0.076,3.358,0.134,5.028 c0.028,0.858-0.643,1.579-1.501,1.608C183.183,428.454,183.166,428.454,183.146,428.454z"
  />
  <path
    fill="#FFF"
    d="M182.988,410.313c-0.008,0-0.014,0-0.021,0c-0.858-0.013-1.543-0.718-1.532-1.576 c0.015-1.104,0.033-2.197,0.056-3.281c0.017-0.858,0.704-1.51,1.585-1.523c0.858,0.019,1.541,0.729,1.522,1.587 c-0.023,1.077-0.041,2.167-0.056,3.261C184.531,409.632,183.836,410.313,182.988,410.313z"
  />
  <path
    fill="#FFF"
    d="M183.678,389.781c-0.027,0-0.054-0.001-0.082-0.002c-0.856-0.044-1.517-0.774-1.472-1.633 c0.099-1.906,0.2-3.704,0.304-5.368c0.052-0.859,0.787-1.516,1.647-1.457c0.855,0.052,1.506,0.789,1.455,1.646 c-0.1,1.657-0.203,3.445-0.302,5.341C185.187,389.137,184.5,389.781,183.678,389.781z"
  />
  <path
    fill="#FFF"
    d="M184.527,376.411c-0.038,0-0.079,0-0.121-0.003c-0.856-0.066-1.496-0.813-1.432-1.669 c0.224-2.912,0.378-4.583,0.378-4.583c0.078-0.854,0.835-1.497,1.689-1.404c0.855,0.076,1.485,0.835,1.405,1.69 c0,0-0.152,1.656-0.372,4.533C186.014,375.791,185.332,376.411,184.527,376.411z"
  />
  <path
    fill="#FFF"
    d="M153.006,394.304c-0.058,0-0.117-0.001-0.177-0.009c-0.854-0.099-1.466-0.868-1.368-1.721 c0.262-2.304,0.579-4.651,0.943-6.972c0.133-0.85,0.929-1.438,1.777-1.295c0.849,0.133,1.429,0.929,1.295,1.775 c-0.358,2.279-0.67,4.582-0.928,6.844C154.461,393.72,153.787,394.304,153.006,394.304z"
  />
  <path
    fill="#FFF"
    d="M155.478,379.077c-0.107,0-0.216-0.011-0.326-0.035c-0.839-0.18-1.373-1.006-1.193-1.846 c0.812-3.792,1.438-5.947,1.464-6.038c0.239-0.823,1.107-1.296,1.927-1.056c0.825,0.24,1.298,1.105,1.057,1.927 c-0.006,0.022-0.624,2.148-1.41,5.818C156.841,378.579,156.197,379.077,155.478,379.077z"
  />
  <path
    fill="#FFF"
    d="M232.774,384.022c-0.67,0-1.29-0.437-1.488-1.113c-0.695-2.346-1.583-4.758-2.631-7.171 c-0.343-0.786,0.017-1.703,0.805-2.046c0.788-0.343,1.702,0.02,2.045,0.806c1.101,2.528,2.03,5.063,2.761,7.529 c0.244,0.822-0.226,1.688-1.047,1.933C233.07,384.003,232.92,384.022,232.774,384.022z"
  />
  <path
    fill="#FFF"
    d="M226.63,369.757c-0.542,0-1.068-0.285-1.354-0.79c-1.521-2.695-2.671-4.324-2.684-4.34 c-0.496-0.7-0.331-1.671,0.37-2.167c0.699-0.496,1.669-0.332,2.165,0.367c0.05,0.073,1.249,1.764,2.855,4.611 c0.421,0.748,0.159,1.696-0.591,2.118C227.152,369.692,226.888,369.757,226.63,369.757z"
  />
  <path
    fill="#FFF"
    d="M185.822,337.184c-0.743,0-1.399-0.534-1.532-1.287c-0.325-1.874-1.232-4.062-2.697-6.504 c-0.442-0.737-0.203-1.69,0.533-2.132c0.738-0.444,1.692-0.203,2.132,0.534c1.663,2.771,2.704,5.315,3.095,7.566 c0.147,0.846-0.418,1.651-1.263,1.798C186,337.175,185.91,337.184,185.822,337.184z"
  />
  <path
    fill="#FFF"
    d="M178.009,323.383c-0.443,0-0.883-0.188-1.191-0.555c-0.947-1.125-1.971-2.273-3.041-3.412 c-0.588-0.626-0.559-1.609,0.067-2.197c0.625-0.59,1.608-0.56,2.198,0.067c1.11,1.18,2.173,2.372,3.156,3.543 c0.551,0.657,0.467,1.638-0.189,2.191C178.716,323.265,178.361,323.383,178.009,323.383z"
  />
  <path
    fill="#FFF"
    d="M212.524,293.599c-0.371,0-0.742-0.134-1.041-0.401c-0.636-0.574-0.688-1.559-0.112-2.196 c3.536-3.912,7.463-7.212,11.674-9.805c0.731-0.453,1.688-0.223,2.139,0.51c0.449,0.73,0.223,1.689-0.51,2.139 c-3.958,2.438-7.658,5.545-10.996,9.241C213.372,293.425,212.951,293.599,212.524,293.599z"
  />
  <path
    fill="#FFF"
    d="M204.224,305.387c-0.248,0-0.497-0.058-0.73-0.184c-0.756-0.403-1.044-1.346-0.639-2.103 c1.58-2.961,3.457-5.85,5.575-8.582c0.525-0.68,1.503-0.803,2.182-0.277c0.677,0.526,0.799,1.504,0.273,2.18 c-2.009,2.596-3.79,5.335-5.288,8.145C205.317,305.088,204.779,305.387,204.224,305.387z"
  />
  <path
    fill="#FFF"
    d="M200.977,313.815c-0.034,0-0.07-0.002-0.106-0.005c-0.855-0.058-1.504-0.797-1.447-1.653 c0.075-1.129,0.622-2.944,1.539-5.111c0.335-0.791,1.247-1.158,2.036-0.829c0.792,0.336,1.162,1.248,0.826,2.038 c-0.897,2.127-1.26,3.543-1.299,4.107C202.472,313.186,201.788,313.815,200.977,313.815z"
  />
  <path
    fill="#e6e2d6"
    d="M156.398,550.231c-0.778,0-1.448-0.581-1.542-1.373l-0.391-3.284c-0.102-0.852,0.508-1.625,1.36-1.727 c0.85-0.108,1.625,0.507,1.727,1.361l0.391,3.284c0.099,0.853-0.51,1.625-1.361,1.727 C156.521,550.227,156.458,550.231,156.398,550.231z"
  />
  <path
    fill="#e6e2d6"
    d="M154.321,533.284c-0.778,0-1.447-0.58-1.543-1.371l-1.699-14.333c-0.101-0.853,0.509-1.626,1.361-1.726 c0.849-0.118,1.625,0.506,1.726,1.359l1.702,14.334c0.099,0.852-0.51,1.624-1.363,1.725 C154.445,533.28,154.38,533.284,154.321,533.284z"
  />
  <path
    fill="#e6e2d6"
    d="M151.274,507.013c-0.775,0-1.447-0.58-1.541-1.371l-0.878-7.394c-0.1-0.854,0.508-1.625,1.362-1.728 c0.849-0.119,1.625,0.508,1.727,1.36l0.877,7.395c0.101,0.853-0.509,1.625-1.359,1.726 C151.398,507.01,151.337,507.013,151.274,507.013z"
  />
</svg>