<svg xmlns="http://www.w3.org/2000/svg" version="1.0" viewBox="0 0 1133.858 1133.858"><path fill="#e6e2d6" d="M609.705,816.626l-43.667,274.447H174.823c0,0-8.982,13.769-43.88-96.628 c-4.794-15.185-8.376-32.708-10.978-51.422c-16.362-117.348,5.631-286.463,5.631-286.463l417.735,138.047L609.705,816.626z"/><path fill="#002600" d="M532.174,1020.209c-16.041,1.854-286.647-52.026-412.21-77.316 c-16.362-117.348,5.631-286.398,5.631-286.398l417.735,137.951C601.488,868.375,553.099,1017.785,532.174,1020.209z"/><path fill="#636155" d="M893.804,995.863c-2.282,26.912-86.835,18.749-105.032,24.489c-29.211,9.215-66.408,41.937-74.482,25.933 c-13.831-27.431-42.062-64.217-79.366-100.005c-8.893-8.538-18.322-17.021-28.178-25.309 c-88.152-74.037-152.833-78.884-257.881-93.214c-10.551-1.443-21.512-2.976-32.937-4.687 c-87.957-13.17-159.961-50.653-198.281-133.173c-39.923-85.943,17.734-222.788,79.527-286.452 c8.199-8.466,16.522-16.379,24.969-23.758c70.063-61.311,147.914-85.64,231.272-75.517c52.506,6.363,93.98,30.122,141.283,59.369 c43.952,27.18,73.734,67.3,104.228,108.222c70.846,95.032,115.226,216.959,138.467,333.148c1.623,8.073,4.242,17.181,7.504,26.983 C862.168,883.809,897.243,955.261,893.804,995.863z"/><path fill="#918e81" d="M401.442,676.296c-22.635,54.36-35.272,112.837-52.578,151.459c-10.551-1.443-21.512-2.976-32.937-4.687 c-87.957-13.17-159.961-50.653-198.281-133.173c-39.923-85.943,17.734-222.788,79.527-286.452 c8.199-8.466,16.522-16.379,24.969-23.758C283.972,437.646,436.464,592.189,401.442,676.296z"/><path fill="#e6e2d6" d="M649.556,266.99c-0.588,3.993-1.55,8.181-2.922,12.583c-11.015,35.325-39.372,63.254-72.309,72.985 c-0.089,0.036-0.179,0.071-0.268,0.089c-0.463,0.143-0.927,0.25-1.408,0.928c-0.107,0.16-0.231-0.502-0.338,1.498c0,0,0,0-0.019,0 c-24.631,5-51.651,2.281-75.801-15.008c-16.896-12.083-32.331-25.737-40.94-42.792c-0.018-0.019-0.018-0.223-0.035-0.242 c-4.367-8.662-6.969-18.558-7.112-29.697c-0.125-11.086,0.16-28.724,3.422-44.729c0-0.018,0-0.059,0.018-0.077 c-9.464-4.349-15.363-13.877-15.506-23.894c-0.053-2.406,0.25-4.836,0.91-7.225c0.445-1.64,1.051-3.282,1.853-4.869 c4.795-9.553,21.21-14.01,27.858-6.097c-1.96,4.189-2.994,8.591-2.602,12.992c1.622-1.799,3.422-2.941,5.418-4.189 c0,0,0.018,0.626,0.018,0.609c1.123-0.695,2.299-0.782,3.547-0.782h0.018c12.869,0,29.194-0.947,46.714,0.069 c-3.136,12.138,1.426,25.138,10.765,35.832c22.065,25.327,48.069,30.338,81.059,31.729c11.728,0.499,25.434-0.97,38.124-4.855 C650.519,256.589,650.395,261.537,649.556,266.99z"/><path fill="#e6e2d6" d="M551.387,395.94c-20.354,8.092-50.314-0.214-69.117-9.785c-16.753-8.536-30.602-23.223-33.953-42.383 c-1.159-6.648-0.445-14.704,0.623-21.69c0.268-1.765,0.571-3.458,0.855-5.044c0.66-3.582,2.139-8.216,3.458-12.387 c0.694-0.481,1.229-1.033,1.604-1.64c-0.464,0.428-0.945,0.802-1.444,1.158c0.891-2.833,1.693-5.436,2.104-7.325 c0.017,0.019,0.017,0.036,0.035,0.054c8.609,17.056,24.043,31.084,40.94,43.167c24.15,17.289,51.17,20.008,75.801,15.008 c0.019,0,0.019,0,0.019,0c0.107-2,0.231-1.337,0.338-1.498c0.838,0.303,1.658,0.249,2.459,0.588l0.018-0.17 C581.241,365.917,562.028,391.716,551.387,395.94z"/><path fill="#f2f2f2" d="M455.518,296.844c-0.411,1.89-1.212,4.492-2.104,7.325c-1.087,0.802-2.228,1.479-3.404,2.104 c-16.379,5.953-64.644,0.445-78.243,3.529c-15.452,3.512-32.277,7.147-48.372,12.601c-6.096-8.412-10.444-18.678-12.708-30.316 c-12.281-63.2,67.603-126.33,125.652-93.464c0.143,10.017,6.042,19.534,15.506,23.883c-0.018,0.018-0.018,0.036-0.018,0.054 c-3.262,16.005-3.546,33.596-3.422,44.682C448.549,278.38,451.151,288.182,455.518,296.844z"/><path fill="#002600" d="M320.293,322.452c38.733-16.628,78.985-13.98,119.977-10.555c3.438,0.287,3.411-5.063,0-5.347 c-42.165-3.523-82.916-5.784-122.677,11.284C314.434,319.19,317.16,323.796,320.293,322.452L320.293,322.452z"/><path fill="#f2f2f2" d="M702.864,334.861c-3.777,31.529-40.102,58.816-74.731,64.501c-4.688-4.349-9.321-8.751-13.866-13.26 c-12.726-12.583-23.241-25.7-39.139-32.295l-0.018-0.017c-0.213-0.428-0.481-0.838-0.784-1.23 c32.937-9.731,61.293-37.661,72.309-72.985c1.372-4.403,2.334-8.59,2.922-12.583C679.535,268.292,706.251,306.807,702.864,334.861z"/><path fill="#f2f2f2" d="M681.647,86.769c-28.61-11.065-57.943-12.296-82.44-5.381c1.579-20.107-10.316-38.112-28.164-41.366 c-19.229-3.504-38.057,11.434-42.055,33.364c-0.469,2.573-0.694,5.124-0.728,7.636C516.779,70.16,501.829,62.271,484.7,59.149 c-44.292-8.073-86.268,18.686-93.756,59.767c-7.488,41.08,22.349,80.932,66.635,89.002c7.723,1.408,15.371,1.734,22.783,1.132 c1.594,7.287,5.237,12.77,10.741,14.898c9.155,3.541,20.753-3.165,29.325-15.706c7.881,24.322,26.362,45.1,52.24,55.108 c26.287,10.167,54.399,6.975,76.767-6.223c47.693,7.207,91.87-11.539,106.166-48.506 C772.928,163.822,739.816,109.264,681.647,86.769z"/><path fill="#002600" d="M425.87,386.947l4.562-32.126c0.204-1.458-0.811-2.808-2.271-3.014l-13.656-1.94 c-0.594-6.883-2.042-13.62-4.256-20.068l11.726-7.305c1.255-0.776,1.64-2.427,0.858-3.679l-17.156-27.542 c-0.778-1.25-2.428-1.633-3.676-0.85l-10.718,7.637c-4.781-4.806-10.523-9.176-15.124-12.316l4.292-13.14 c0.456-1.4-2.174-4.068-3.577-4.526l-30.846-10.073c-1.401-0.458-2.395,1.027-2.853,2.428l-4.291,13.139 c-5.566-0.18-14.135-0.483-20.829,0.575l-5.326-12.878c-0.55-1.367-2.193-2.058-3.56-1.507l-30.144,12.098 c-1.372,0.548-2.054,2.097-1.502,3.464l5.148,12.816c-5.594,3.899-10.742,8.482-15.285,13.687l-12.175-6.497 c-1.298-0.694-2.916-0.202-3.61,1.098l-15.28,28.628c-0.693,1.299-0.2,2.917,1.098,3.61l12.186,6.503 c-1.828,6.761-2.766,13.573-2.895,20.307l-13.503,2.851c-1.443,0.302-2.367,1.72-2.061,3.164l6.701,31.749 c0.303,1.438,1.72,2.363,3.163,2.057l13.533-2.854c2.886,6.207,6.522,12.051,10.833,17.402l-8.529,10.884 c-0.912,1.158-0.708,2.839,0.455,3.748l25.541,20.014c1.159,0.909,2.839,0.705,3.747-0.455l8.527-10.886 c3.07,1.433,6.244,2.716,9.545,3.793c3.3,1.078,6.621,1.916,9.942,2.57l0.464,13.822c0.045,1.474,1.281,2.629,2.757,2.579 l32.429-1.084c1.473-0.048,2.626-1.284,2.578-2.757l-0.465-13.82c6.642-1.774,13.024-4.347,19.015-7.655l9.241,10.291 c0.985,1.1,2.675,1.191,3.773,0.204l24.145-21.675c1.095-0.985,1.187-2.673,0.2-3.769l-9.22-10.269 c3.873-5.514,7.136-11.566,9.649-18.104l13.675,1.942C424.307,389.426,425.661,388.409,425.87,386.947z M316.1,401.915 c-24.773-8.09-38.302-34.739-30.212-59.511c8.09-24.773,34.739-38.303,59.512-30.213c24.775,8.09,38.304,34.741,30.214,59.513 C367.524,396.476,340.875,410.004,316.1,401.915z"/><path fill="#e6e2d6" d="M323.645,447.146c15.081,10.15,61.132,20.846,48.116-16.041c-9.003-25.515-31.335-48.043-53.066-62.869 c-58.756-40.086-114.747,4.553-118.022,69.998c-0.409,8.168-0.621,17.618,1.11,25.08c-38.889-8.457-16.267,72.301-7.802,86.762 c18.912,32.303,72.46,30.026,71.118-15.321c24.633,8.792,25.876-19.728,26.734-35.694 C334.442,509.53,341.819,446.958,323.645,447.146"/><path fill="#918e81" d="M893.804,995.863c-2.282,26.912-86.835,18.749-105.032,24.489c-29.211,9.215-66.408,41.937-74.482,25.933 c-13.831-27.431-42.062-64.217-79.366-100.005c21.138-22.919,110.413-112.945,209.973-114.388 C862.168,883.809,897.243,955.261,893.804,995.863z"/><path fill="#e6e2d6" d="M759.421,1074.06c-11.58,2.35-22.979,14.52-34.759,13.066c-17.598-2.173-21.405-22.916-13.903-35.683 c17.125-29.141,70.185-41.522,100.839-46.488c39.837-6.456,82.882-3.725,118.163,18.275c17.907,11.168,59.883,55.844,21.254,60.196 c-32.861,3.702-70.953,1.401-103.281-1.824c-16.439-1.64-33.93-3.06-49.904-5.305c-9.361-1.316-23.757-9.373-33.956-3.564 L759.421,1074.06z"/><path fill="#002600" d="M577.488,275.115c-4.011,6.954-6.423,14.754-10.015,21.927c-1.691,3.376-3.712,7.132-6.867,9.354 c-4.629,3.259-9.205-3.916-11.259-7.014c-1.896-2.86-6.529-0.186-4.618,2.698c5.405,8.155,13.728,14.833,21.932,6.017 c7.761-8.34,9.869-20.618,15.445-30.282C583.832,274.822,579.21,272.131,577.488,275.115L577.488,275.115z"/><path fill="#002600" d="M454.583,212.161c-0.001,0.851-0.017,1.922-0.132,2.485c-0.153,0.744-0.185,0.844-0.97,1.273 c-3.025,1.655-0.327,6.272,2.699,4.618c3.204-1.752,3.748-5.031,3.75-8.375C459.932,208.713,454.585,208.713,454.583,212.161 L454.583,212.161z"/><path fill="#002600" d="M473.565,318.394c14.918,15.397,36.092,25.519,56.238,32.009c18.496,5.958,42.519,9.198,57.95-5.317 c2.517-2.366-1.271-6.141-3.781-3.781c-15.156,14.255-39.469,8.491-57.003,2.534c-17.7-6.015-36.483-15.663-49.625-29.225 C474.943,312.133,471.166,315.917,473.565,318.394L473.565,318.394z"/><path fill="#002600" d="M421.825,329.849c-4.092,70.783,89.75,118.694,147.189,81.172c2.874-1.878,0.197-6.51-2.699-4.618 c-54.15,35.375-143.006-9.723-139.143-76.555C427.371,326.402,422.023,326.422,421.825,329.849L421.825,329.849z"/><path fill="#002600" d="M199.891,423.774c-3.683,24.087-4.411,48.535,8.762,70.004c1.8,2.932,6.426,0.248,4.618-2.7 c-12.395-20.2-11.684-43.25-8.224-65.882C205.563,421.823,200.411,420.375,199.891,423.774L199.891,423.774z"/><path fill="#002600" d="M260.842,511.958c-10.868-5.672-14.13,3.283-9.711,12.318c5.839,11.942,20.042,17.269,31.478,9.899 c11.304-7.284,9.623-23.592,6.124-34.532c-4.081-12.761-13.606-26.978-27.315-30.419c-3.346-0.841-4.765,4.316-1.422,5.155 c16.783,4.215,26.643,26.658,25.988,42.539c-0.423,10.261-9.209,17.818-19.467,14.743c-4.314-1.292-7.729-5.193-10.063-8.833 c-2.129-3.318-4.506-9.487,1.692-6.252C261.196,518.169,263.9,513.555,260.842,511.958L260.842,511.958z"/><path fill="#002600" d="M284.835,502.017c18.202,10.875,32.933,0.446,34.709-19.516c1.947-21.866-12.047-43.828-33.862-48.461 c-3.364-0.714-4.793,4.439-1.422,5.155c18.674,3.967,29.396,20.771,30.043,39.161c0.244,6.926-1.264,14.634-6.144,19.822 c-5.776,6.14-14.514,2.874-20.625-0.779C284.567,495.626,281.879,500.25,284.835,502.017L284.835,502.017z"/><path fill="#002600" d="M309.101,417.087c25.46,11.321,29.573,49.348,9.165,67.384c-2.589,2.288,1.207,6.055,3.78,3.78 c22.796-20.146,18.258-63.106-10.247-75.782C308.678,411.083,305.955,415.688,309.101,417.087L309.101,417.087z"/><path fill="#002600" d="M167.401,453.467c-16.712,27.254-19.448,56.818-7.718,86.577c8.056,20.44,20.286,36.229,38.405,48.388 c13.78,9.249,31.336,16.807,48.258,14.758c18.233-2.208,26.802-18.121,29.07-34.828c0.458-3.37-4.693-4.825-5.155-1.422 c-2.146,15.803-9.499,29.796-26.832,31.196c-15.069,1.218-30.378-6.368-42.643-14.321c-16.541-10.726-26.872-25.048-34.979-42.912 c-12.922-28.475-9.97-58.352,6.211-84.738C173.827,453.217,169.2,450.534,167.401,453.467L167.401,453.467z"/><path fill="#002600" d="M858.851,1038.648c33.625-0.77,70.596,13.839,89.9,42.354c1.92,2.838,6.555,0.165,4.616-2.698 c-20.37-30.092-58.914-45.817-94.516-45.003C855.408,1033.38,855.401,1038.727,858.851,1038.648L858.851,1038.648z"/><path fill="#002600" d="M896.964,1030.061c28.211,5.166,49.35,23.682,62.706,48.516c1.633,3.037,6.249,0.338,4.616-2.698 c-13.949-25.936-36.44-45.579-65.902-50.973C895.015,1024.287,893.576,1029.441,896.964,1030.061L896.964,1030.061z"/><path fill="#FFF" d="M137.454,922.078c120.438,27.782,244.828,35.373,363.983,69.157c3.325,0.943,4.733-4.217,1.422-5.156 c-119.155-33.785-243.545-41.374-363.983-69.156C135.52,916.148,134.095,921.304,137.454,922.078L137.454,922.078z"/><path fill="#FFF" d="M203.929,902.515c-0.001-0.024-0.003-0.047-0.004-0.071c-0.118-2.407-2.787-3.436-4.563-1.89 c-1.422,1.234-1.175,5.023-1.375,6.698c-0.411,3.429-0.715,7.012-1.736,10.326c-1.018,3.304,4.144,4.705,5.156,1.42 c0.896-2.907,1.188-6.024,1.586-9.028c0.201-1.509,0.378-3.02,0.555-4.53c0.074-0.628,0.146-1.257,0.219-1.885 c0.15-1.276,0.019,0.221-0.625,0.78c-1.521-0.63-3.042-1.26-4.563-1.89c0.001,0.024,0.002,0.047,0.003,0.071 C198.75,905.947,204.098,905.963,203.929,902.515L203.929,902.515z"/><polygon fill="#002600" points="484.943 1095.073 620.398 1095.073 668.52 922.073 533.065 922.073"/><polygon fill="#e6e2d6" points="673.67 929.073 660.768 975.492 627.527 1086.073 492.073 1086.073 525.312 975.492 538.216 929.073"/><rect width="228" height="18" x="459.429" y="1071.073" fill="#55ab67"/><path fill="#e6e2d6" d="M917.429,870.447c0,33.483-27.143,60.626-60.626,60.626H347.055c-33.483,0-60.626-27.143-60.626-60.626 V547.699c0-33.483,27.143-60.626,60.626-60.626h509.748c33.483,0,60.626,27.143,60.626,60.626V870.447z"/><rect width="539" height="292" x="330.429" y="551.073" fill="#002600"/><circle cx="609.704" cy="879.354" r="20.496" fill="#002600"/><polygon fill="#55ab67" points="673.67 929.073 660.768 975.073 525.312 975.073 538.216 929.073"/><path fill="#55ab67" d="M532.429,593.271c0,5.414-4.389,9.803-9.803,9.803H232.232c-5.414,0-9.803-4.389-9.803-9.803v-0.395 c0-5.414,4.389-9.803,9.803-9.803h290.395c5.414,0,9.803,4.389,9.803,9.803V593.271z"/><path fill="#55ab67" d="M530.429,645.621c0,5.221-4.232,9.453-9.453,9.453H238.882c-5.221,0-9.453-4.232-9.453-9.453v-1.095 c0-5.221,4.232-9.453,9.453-9.453h282.094c5.221,0,9.453,4.232,9.453,9.453V645.621z"/><path fill="#55ab67" d="M532.429,686.271c0,5.414-4.389,9.803-9.803,9.803h-76.395c-5.414,0-9.803-4.389-9.803-9.803v-0.395 c0-5.414,4.389-9.803,9.803-9.803h76.395c5.414,0,9.803,4.389,9.803,9.803V686.271z"/><path fill="#e6e2d6" d="M403.975,786.296h-31.906l-5.504,17.525h-13.931l25.502-80.89h19.886l25.502,80.89h-13.932 L403.975,786.296z M399.93,773.601l-12.021-37.524l-11.796,37.524H399.93z"/><path fill="#e6e2d6" d="M494.185,749.221c0,13.369-6.741,23.706-20.671,25.953c-2.135,0.336-4.943,0.449-6.404,0.449h-19.997 v28.199h-13.481v-80.89h33.478c1.574,0,4.27,0.113,6.404,0.449C487.557,725.517,494.185,735.852,494.185,749.221z M480.479,749.221c0-5.167-2.135-11.347-8.876-13.031c-1.573-0.449-3.595-0.562-5.055-0.562h-19.436v27.3h19.436 c1.46,0,3.482-0.113,5.055-0.562C478.344,760.681,480.479,754.389,480.479,749.221z"/><path fill="#e6e2d6" d="M520.019,722.932v80.89h-13.482v-80.89H520.019z"/><path fill="#55ab67" d="M824.804,655.496l-3.897-22.096c-0.178-1.002-1.137-1.672-2.139-1.493l-9.394,1.655 c-1.868-4.396-4.265-8.515-7.105-12.278l6.141-7.319c0.658-0.78,0.555-1.948-0.226-2.603l-17.189-14.421 c-0.78-0.654-1.946-0.552-2.599,0.23l-5.896,7.321c-4.174-2.133-10.071-3.773-13.071-4.849v-9.558c0-1.019-1.326-2.011-2.346-2.011 h-22.437c-1.02,0-2.217,0.992-2.217,2.011v9.558c-4,1.076-8.963,2.716-13.137,4.849l-6.05-7.323 c-0.654-0.78-1.775-0.882-2.555-0.227l-17.165,14.423c-0.781,0.655-0.873,1.82-0.216,2.6l6.148,7.32 c-2.84,3.763-5.233,7.881-7.103,12.278l-9.394-1.657c-1.002-0.177-1.959,0.493-2.137,1.497l-3.896,22.098 c-0.177,1.002,0.495,1.96,1.497,2.137l9.406,1.659c0.249,4.837,1.095,9.516,2.456,13.97l-8.264,4.772 c-0.884,0.508-1.187,1.638-0.675,2.522l11.219,19.431c0.508,0.881,1.638,1.184,2.521,0.674l8.283-4.781 c3.229,3.46,6.873,6.521,10.855,9.113l-3.271,8.985c-0.35,0.957,0.145,2.017,1.104,2.365l21.085,7.674 c0.957,0.348,2.017-0.146,2.365-1.104l3.269-8.986c2.326,0.284,4.688,0.446,7.088,0.446c2.401,0,4.764-0.162,7.087-0.446 l3.272,8.986c0.346,0.959,1.406,1.454,2.365,1.104l21.085-7.674c0.957-0.348,1.452-1.408,1.102-2.365l-3.271-8.985 c3.984-2.592,7.627-5.653,10.856-9.113l8.283,4.781c0.882,0.512,2.014,0.209,2.524-0.675l11.217-19.431 c0.508-0.883,0.208-2.012-0.677-2.521l-8.264-4.771c1.361-4.456,2.207-9.134,2.456-13.971l9.406-1.659 C824.31,657.46,824.981,656.501,824.804,655.496z M755.864,688.896c-18.02,0-32.633-14.614-32.633-32.633 c0-18.02,14.613-32.634,32.633-32.634c18.021,0,32.635,14.614,32.635,32.634C788.499,674.283,773.885,688.896,755.864,688.896z"/><path fill="#55ab67" d="M919.833,461.852l4.562-32.125c0.204-1.458-0.811-2.809-2.271-3.014l-13.656-1.941 c-0.593-6.883-2.042-13.62-4.255-20.068l11.726-7.305c1.255-0.776,1.64-2.427,0.858-3.679l-17.156-27.542 c-0.778-1.25-2.428-1.634-3.676-0.851l-10.718,7.637c-4.781-4.806-10.523-9.176-15.124-12.316l4.292-13.139 c0.456-1.4-2.174-4.069-3.577-4.526l-30.846-10.073c-1.401-0.458-2.395,1.027-2.853,2.428l-4.291,13.139 c-5.566-0.18-14.135-0.483-20.829,0.574l-5.326-12.878c-0.55-1.367-2.193-2.058-3.56-1.507l-30.144,12.097 c-1.372,0.548-2.054,2.098-1.502,3.465l5.148,12.816c-5.594,3.898-10.743,8.482-15.285,13.687l-12.175-6.497 c-1.298-0.693-2.915-0.202-3.61,1.098l-15.28,28.628c-0.693,1.299-0.2,2.917,1.098,3.611l12.186,6.502 c-1.828,6.761-2.766,13.573-2.895,20.307l-13.503,2.851c-1.442,0.302-2.367,1.72-2.061,3.164l6.701,31.749 c0.303,1.438,1.72,2.363,3.163,2.058l13.533-2.854c2.886,6.207,6.521,12.05,10.833,17.402l-8.529,10.883 c-0.912,1.158-0.708,2.839,0.454,3.748l25.541,20.014c1.159,0.909,2.839,0.705,3.748-0.454l8.527-10.886 c3.07,1.433,6.243,2.716,9.545,3.793c3.3,1.078,6.621,1.917,9.942,2.57l0.465,13.822c0.045,1.474,1.281,2.629,2.757,2.579 l32.43-1.084c1.472-0.048,2.626-1.285,2.578-2.757l-0.465-13.82c6.642-1.774,13.024-4.347,19.016-7.655l9.24,10.291 c0.985,1.1,2.675,1.191,3.773,0.205l24.145-21.676c1.095-0.985,1.187-2.673,0.2-3.769l-9.22-10.269 c3.873-5.514,7.137-11.566,9.65-18.104l13.675,1.942C918.271,464.332,919.625,463.314,919.833,461.852z M810.063,476.82 c-24.773-8.09-38.302-34.739-30.212-59.511c8.09-24.773,34.739-38.303,59.512-30.213c24.774,8.09,38.304,34.741,30.214,59.513 C861.487,471.381,834.838,484.91,810.063,476.82z"/><path fill="#55ab67" d="M702.568,754.526l-2.781-15.769c-0.125-0.715-0.811-1.194-1.526-1.065l-6.703,1.18 c-1.333-3.137-3.044-6.076-5.07-8.762l4.381-5.224c0.47-0.555,0.397-1.389-0.16-1.857l-12.267-10.292 c-0.557-0.466-1.389-0.393-1.855,0.164l-3.518,5.225c-2.978-1.521-7.639-2.692-8.639-3.46v-6.821c0-0.728-2.324,0.228-3.052,0.228 h-16.014c-0.728,0-0.935-0.956-0.935-0.228v6.821c-2,0.768-6.72,1.939-9.699,3.46l-4.48-5.225c-0.466-0.557-1.347-0.63-1.904-0.162 l-12.292,10.292c-0.558,0.467-0.641,1.3-0.173,1.855l4.378,5.224c-2.028,2.686-3.741,5.625-5.075,8.762l-6.705-1.182 c-0.715-0.127-1.4,0.352-1.526,1.068l-2.781,15.77c-0.127,0.715,0.352,1.399,1.067,1.526l6.712,1.184 c0.178,3.451,0.782,6.79,1.753,9.97l-5.898,3.404c-0.631,0.364-0.847,1.169-0.481,1.801l8.007,13.867 c0.363,0.628,1.168,0.844,1.799,0.48l5.911-3.411c2.305,2.468,4.906,4.654,7.747,6.502l-2.333,6.412 c-0.25,0.684,0.103,1.439,0.788,1.688l15.047,5.476c0.683,0.249,1.439-0.103,1.688-0.787l2.332-6.414 c1.66,0.204,3.345,0.319,5.058,0.319c1.714,0,3.4-0.115,5.058-0.319l2.335,6.414c0.247,0.684,1.004,1.037,1.687,0.787l15.049-5.476 c0.682-0.249,1.036-1.004,0.787-1.688l-2.336-6.412c2.844-1.848,5.444-4.035,7.749-6.502l5.911,3.411 c0.63,0.366,1.438,0.15,1.802-0.482l8.004-13.867c0.364-0.63,0.148-1.436-0.482-1.8l-5.899-3.404 c0.972-3.18,1.575-6.519,1.753-9.97l6.713-1.184C702.217,755.929,702.696,755.244,702.568,754.526z M653.369,778.363 c-12.86,0-23.289-10.429-23.289-23.288c0-12.861,10.429-23.29,23.289-23.29c12.861,0,23.29,10.429,23.29,23.29 C676.659,767.934,666.23,778.363,653.369,778.363z"/><path fill="#e6e2d6" d="M590.992,787.182c-0.61,0-1.205-0.313-1.538-0.879c-0.092-0.157-2.281-3.904-4.459-10.083 c-0.328-0.928,0.16-1.946,1.088-2.273c0.93-0.32,1.947,0.162,2.274,1.089c2.063,5.855,4.147,9.423,4.168,9.46 c0.5,0.848,0.216,1.94-0.632,2.438C591.611,787.102,591.299,787.182,590.992,787.182z"/><path fill="#e6e2d6" d="M582.604,757.52c-0.938,0-1.724-0.733-1.778-1.681c-0.071-1.239-0.108-2.501-0.108-3.784 c0-5.839,0.795-11.548,2.364-16.968c0.272-0.947,1.258-1.486,2.208-1.217c0.945,0.275,1.49,1.264,1.216,2.209 c-1.475,5.096-2.224,10.471-2.224,15.976c0,1.213,0.036,2.409,0.103,3.582c0.056,0.982-0.695,1.824-1.678,1.88 C582.672,757.519,582.637,757.52,582.604,757.52z M750.264,748.901c-0.077,0-0.153-0.005-0.231-0.016 c-6.995-0.91-13.733-2.837-20.025-5.728c-0.895-0.413-1.288-1.471-0.875-2.364c0.409-0.896,1.469-1.286,2.362-0.877 c5.968,2.741,12.359,4.57,18.998,5.436c0.977,0.127,1.664,1.02,1.537,1.997C751.913,748.247,751.147,748.901,750.264,748.901z M770.559,748.708c-0.872,0-1.635-0.64-1.764-1.53c-0.139-0.975,0.538-1.876,1.513-2.017c6.442-0.922,12.904-2.668,19.205-5.187 c0.912-0.367,1.951,0.077,2.316,0.994c0.366,0.914-0.08,1.951-0.994,2.316c-6.563,2.623-13.301,4.442-20.023,5.406 C770.728,748.703,770.642,748.708,770.559,748.708z M808.114,733.851c-0.571,0-1.131-0.273-1.476-0.78 c-0.554-0.814-0.343-1.923,0.472-2.477c5.516-3.751,10.638-8.094,15.225-12.903c0.68-0.712,1.807-0.736,2.52-0.059 c0.712,0.679,0.738,1.807,0.059,2.521c-4.758,4.99-10.074,9.496-15.799,13.39C808.809,733.751,808.458,733.851,808.114,733.851z M713.781,732.183c-0.421,0-0.844-0.148-1.185-0.451c-2.616-2.327-5.134-4.898-7.484-7.641c-2.139-2.501-4.372-4.908-6.636-7.153 c-0.7-0.693-0.704-1.821-0.011-2.521s1.822-0.701,2.521-0.01c2.334,2.313,4.633,4.792,6.835,7.366 c2.243,2.622,4.649,5.076,7.146,7.296c0.734,0.654,0.801,1.781,0.146,2.517C714.761,731.981,714.272,732.183,713.781,732.183z M593.745,719.183c-0.362,0-0.727-0.109-1.042-0.337c-0.798-0.578-0.977-1.692-0.399-2.489c2.349-3.25,5.086-6.405,8.137-9.379 c2.038-1.988,4.187-3.849,6.389-5.532c0.783-0.601,1.902-0.451,2.499,0.333c0.598,0.782,0.449,1.901-0.333,2.498 c-2.089,1.598-4.13,3.366-6.065,5.253c-2.904,2.833-5.508,5.833-7.738,8.917C594.842,718.927,594.297,719.183,593.745,719.183z M683.985,704.58c-0.336,0-0.675-0.094-0.977-0.292c-5.773-3.794-11.762-6.76-17.802-8.817c-0.932-0.317-1.431-1.33-1.112-2.261 s1.332-1.436,2.261-1.112c6.325,2.153,12.588,5.253,18.61,9.211c0.823,0.541,1.051,1.646,0.512,2.468 C685.134,704.298,684.564,704.58,683.985,704.58z M835.962,704.552c-0.312,0-0.628-0.082-0.915-0.254 c-0.845-0.507-1.118-1.602-0.611-2.446c3.466-5.768,6.221-11.87,8.191-18.138c0.296-0.937,1.29-1.466,2.235-1.167 c0.94,0.296,1.46,1.297,1.166,2.235c-2.055,6.536-4.927,12.896-8.535,18.904C837.158,704.244,836.568,704.552,835.962,704.552z M625.783,695.06c-0.744,0-1.438-0.47-1.689-1.213c-0.314-0.933,0.187-1.944,1.12-2.257c6.623-2.229,13.546-3.293,20.633-3.169 c0.984,0.019,1.768,0.832,1.75,1.815c-0.018,0.985-0.836,1.775-1.815,1.749c-6.666-0.118-13.196,0.884-19.429,2.981 C626.163,695.03,625.97,695.06,625.783,695.06z M847.993,666.055c-0.035,0-0.07-0.001-0.104-0.003 c-0.983-0.056-1.733-0.898-1.676-1.881c0.087-1.526,0.132-3.088,0.132-4.639c0-5.041-0.475-10.159-1.412-15.212 c-0.179-0.969,0.46-1.898,1.427-2.078c0.966-0.186,1.899,0.458,2.079,1.427c0.976,5.269,1.471,10.605,1.471,15.863 c0,1.619-0.047,3.25-0.14,4.844C849.716,665.324,848.93,666.055,847.993,666.055z"/><path fill="#e6e2d6" d="M840.723,626.1c-0.695,0-1.354-0.409-1.642-1.089c-1.333-3.157-2.872-6.346-4.57-9.478 c-0.47-0.865-0.148-1.948,0.717-2.417c0.865-0.469,1.948-0.148,2.416,0.716c1.754,3.234,3.344,6.528,4.72,9.792 c0.383,0.907-0.042,1.953-0.949,2.336C841.189,626.055,840.955,626.1,840.723,626.1z"/><path fill="#55ab67" d="M703.162,501.56c-0.691,0-1.38-0.265-1.904-0.796c-0.816-0.828-0.981-2.052-0.503-3.042 c-0.043-1.469-0.651-4.377-1.353-7.724c-0.661-3.164-1.486-7.101-2.271-11.645c-0.251-1.455,0.726-2.838,2.181-3.089 c1.45-0.255,2.839,0.725,3.089,2.179c0.768,4.452,1.581,8.337,2.235,11.459c0.888,4.241,1.474,7.043,1.474,8.836 c0,0.494,0,1.995-1.07,3.051C704.518,501.303,703.841,501.56,703.162,501.56z M697.288,459.335c-1.408,0-2.586-1.1-2.668-2.522 c-0.178-3.144-0.268-6.321-0.27-9.442c0-4.12,0.159-8.254,0.474-12.29c0.113-1.473,1.41-2.572,2.872-2.458 c1.473,0.115,2.573,1.401,2.458,2.873c-0.303,3.899-0.456,7.894-0.456,11.874c0.001,3.021,0.09,6.097,0.263,9.142 c0.082,1.474-1.044,2.737-2.519,2.82C697.389,459.333,697.338,459.335,697.288,459.335z M700.675,416.833 c-0.195,0-0.393-0.022-0.593-0.067c-1.439-0.326-2.343-1.759-2.016-3.199c1.603-7.062,3.751-14.063,6.384-20.806 c0.538-1.375,2.087-2.055,3.463-1.517c1.375,0.537,2.054,2.087,1.518,3.463c-2.537,6.497-4.607,13.24-6.151,20.044 C702.999,415.99,701.897,416.833,700.675,416.833z M716.15,377.13c-0.449,0-0.903-0.113-1.321-0.352 c-1.283-0.73-1.731-2.363-1-3.646c3.516-6.172,7.557-12.262,12.017-18.101c0.898-1.174,2.576-1.4,3.747-0.503 c1.173,0.896,1.399,2.574,0.503,3.748c-4.315,5.65-8.224,11.538-11.62,17.502C717.983,376.645,717.08,377.13,716.15,377.13z M741.969,343.186c-0.684,0-1.368-0.261-1.89-0.782c-1.044-1.043-1.044-2.736,0-3.781c5.234-5.237,10.904-9.923,16.857-13.924 c1.224-0.824,2.884-0.5,3.711,0.727c0.823,1.226,0.498,2.886-0.728,3.71c-5.666,3.81-11.068,8.273-16.06,13.268 C743.338,342.924,742.653,343.186,741.969,343.186z M917.148,335.498c-0.442,0-0.893-0.11-1.306-0.343 c-0.056-0.03-5.622-3.142-14.822-7.08c-1.357-0.581-1.988-2.152-1.406-3.51c0.581-1.355,2.153-1.986,3.509-1.405 c9.493,4.062,15.104,7.202,15.339,7.333c1.286,0.723,1.742,2.353,1.02,3.64C918.991,335.007,918.084,335.498,917.148,335.498z M882.04,320.772c-0.273,0-0.552-0.042-0.825-0.131c-6.821-2.215-13.68-4.086-20.39-5.562c-1.441-0.317-2.353-1.743-2.037-3.185 c0.317-1.441,1.737-2.357,3.186-2.037c6.878,1.513,13.907,3.43,20.892,5.698c1.404,0.456,2.174,1.964,1.718,3.369 C884.215,320.053,883.167,320.772,882.04,320.772z M777.253,319.529c-1.053,0-2.05-0.625-2.475-1.659 c-0.561-1.367,0.092-2.928,1.458-3.489c6.619-2.718,13.663-4.842,20.933-6.311c1.433-0.296,2.856,0.643,3.15,2.091 c0.292,1.447-0.644,2.857-2.092,3.149c-6.938,1.402-13.654,3.426-19.962,6.016C777.935,319.465,777.59,319.529,777.253,319.529z M840.293,311.706c-0.092,0-0.185-0.004-0.278-0.014c-5.465-0.564-10.885-0.85-16.109-0.85c-1.56-0.001-3.253,0.025-4.887,0.083 c-1.446,0.055-2.711-1.103-2.764-2.579c-0.05-1.476,1.104-1.924,2.58-1.975c1.669-0.058,3.335,0.703,4.997,0.703 c0.024,0,0.05,0,0.077,0c5.404,0,11.009-0.494,16.657,0.088c1.467,0.152,2.536,1.071,2.385,2.54 C842.806,311.076,841.646,311.706,840.293,311.706z"/><path fill="#55ab67" d="M302.257,771.524l-68.794,27.314C219.574,789.617,201.208,784,181.061,784 c-43.312,0-78.421,25.934-78.421,57.925c0,31.991,35.11,57.925,78.421,57.925s78.421-25.934,78.421-57.925 c0-4.559-0.735-8.988-2.083-13.242L302.257,771.524z"/><circle cx="142.742" cy="846.889" r="11.585" fill="#e6e2d6"/><circle cx="208.687" cy="846.889" r="11.585" fill="#e6e2d6"/><circle cx="174.823" cy="846.889" r="11.585" fill="#e6e2d6"/><rect width="1007" height="9" x="63.429" y="1086.073" fill="#002600"/><path fill="#f2f2f2" d="M889.628,183.331h-27.07v-27.07c0-3.474-2.82-6.292-6.292-6.292c-3.476,0-6.296,2.818-6.296,6.292v27.07 H822.9c-3.472,0-6.29,2.821-6.29,6.295c0,3.478,2.818,6.292,6.29,6.292h27.07v27.074c0,3.478,2.82,6.292,6.296,6.292 c3.472,0,6.292-2.814,6.292-6.292v-27.074h27.07c3.476,0,6.295-2.814,6.295-6.292 C895.924,186.152,893.104,183.331,889.628,183.331z"/><path fill="#f2f2f2" d="M799.64,254.887h-13.033v-13.035c0-1.673-1.359-3.029-3.03-3.029c-1.674,0-3.032,1.356-3.032,3.029v13.035 h-13.035c-1.671,0-3.028,1.358-3.028,3.031c0,1.675,1.357,3.03,3.028,3.03h13.035v13.037c0,1.674,1.357,3.029,3.032,3.029 c1.671,0,3.03-1.355,3.03-3.029v-13.037h13.033c1.674,0,3.032-1.355,3.032-3.03C802.671,256.245,801.314,254.887,799.64,254.887z"/><path fill="#f2f2f2" d="M170.39,235.791h-13.033v-13.035c0-1.673-1.359-3.029-3.03-3.029c-1.674,0-3.032,1.356-3.032,3.029v13.035 H138.26c-1.671,0-3.029,1.358-3.029,3.031c0,1.675,1.358,3.03,3.029,3.03h13.035v13.037c0,1.674,1.358,3.029,3.032,3.029 c1.671,0,3.03-1.355,3.03-3.029v-13.037h13.033c1.675,0,3.032-1.355,3.032-3.03C173.422,237.149,172.064,235.791,170.39,235.791z"/><path fill="#f2f2f2" d="M935.888,273.983h-13.033v-13.035c0-1.673-1.359-3.029-3.03-3.029c-1.674,0-3.032,1.356-3.032,3.029 v13.035h-13.035c-1.671,0-3.028,1.358-3.028,3.031c0,1.675,1.357,3.03,3.028,3.03h13.035v13.037c0,1.674,1.358,3.029,3.032,3.029 c1.671,0,3.03-1.355,3.03-3.029v-13.037h13.033c1.674,0,3.032-1.355,3.032-3.03C938.92,275.341,937.563,273.983,935.888,273.983z"/></svg>