<svg xmlns="http://www.w3.org/2000/svg" version="1.0" viewBox="0 0 1133.858 1133.858"><path fill="#002600" d="M271.646,250.302c-22.215,0-43.294-6.952-61.085-20.128l-58.897,18.83 c-1.247,0.397-2.608,0.049-3.509-0.896c-0.899-0.946-1.181-2.324-0.721-3.548l25.537-68.076 c-2.764-9.405-4.164-19.161-4.164-29.02c0-56.706,46.133-102.839,102.84-102.839c56.706,0,102.838,46.133,102.838,102.839 S328.353,250.302,271.646,250.302z M211.202,222.981c0.742,0,1.472,0.242,2.076,0.704c16.885,12.953,37.072,19.799,58.369,19.799 c52.946,0,96.021-43.075,96.021-96.021c0-52.947-43.074-96.021-96.021-96.021c-52.948,0-96.021,43.074-96.021,96.021 c0,9.573,1.414,19.042,4.201,28.143c0.22,0.719,0.196,1.491-0.069,2.196l-23.47,62.565l53.876-17.224 C210.503,223.034,210.854,222.981,211.202,222.981z"/><circle cx="223.352" cy="148.031" r="17.045" fill="#002600"/><circle cx="273.351" cy="148.031" r="17.045" fill="#002600"/><circle cx="325.623" cy="148.031" r="17.045" fill="#002600"/><path fill="#002600" d="M819.858,446.904c0,35.874-29.082,64.955-64.955,64.955h-439.09c-35.874,0-64.955-29.081-64.955-64.955 V256.813c0-35.874,29.082-64.955,64.955-64.955h439.09c35.874,0,64.955,29.081,64.955,64.955V446.904z"/><path fill="#55ab67" d="M368.471,152.858h487.636c34.34,0,61.751,27.487,61.751,61.827v172.865 c0,34.341-27.411,63.308-61.751,63.308h-5.249v106.795l-57.699-106.795H368.471c-34.34,0-62.613-28.966-62.613-63.308V214.686 C305.858,180.346,334.131,152.858,368.471,152.858z"/><path fill="#e6e2d6" d="M442.475,349.858c-20.379,0-30.399-17.986-39.245-34.039c-8.324-15.106-15.52-27.961-28.971-27.961 c-0.063,0-0.125,0-0.186,0c-3.224,0-5.847-2.374-5.87-5.602c-0.021-3.241,2.588-5.775,5.831-5.796 c20.571-0.116,30.6,18.121,39.481,34.236c8.324,15.108,15.521,28.163,28.972,28.163c0.049,0,0.096,0,0.144,0 c13.544,0,20.579-13.115,28.724-28.391c8.656-16.235,18.469-34.609,39.004-34.609c0.078,0,0.159,0,0.236,0 c20.378,0,30.396,18.484,39.241,34.539c8.324,15.106,15.518,28.461,28.967,28.461c0.048,0,0.095,0,0.144,0 c13.543,0,20.576-13.697,28.719-28.973c8.655-16.236,18.466-34.843,39-34.985c20.56-0.181,30.597,18.019,39.475,34.135 c8.354,15.161,15.53,28.238,29.109,28.112c13.543-0.094,20.575-13.759,28.72-29.035c8.655-16.237,18.465-35.254,38.998-35.254 c0.079,0,0.159,0,0.237,0c20.376,0,30.395,18.484,39.24,34.539c8.324,15.107,15.518,28.461,28.967,28.461c0.063,0,0.122,0,0.186,0 c3.224,0,5.847,2.73,5.87,5.959c0.023,3.243-2.588,6.041-5.831,6.041c-0.079,0-0.159,0-0.238,0 c-20.375,0-30.394-18.484-39.239-34.538c-8.324-15.107-15.518-28.462-28.967-28.462c-0.048,0-0.096,0-0.144,0 c-13.542,0-20.575,13.615-28.718,28.89c-8.655,16.236-18.465,35.11-39,35.11c-0.079,0-0.158,0-0.237,0 c-20.375,0-30.395-18.486-39.239-34.539c-8.323-15.107-15.517-28.461-28.964-28.461c-0.048,0-0.095,0-0.144,0 c-13.543,0-20.576,13.615-28.719,28.891c-8.655,16.235-18.466,34.109-39,35.109c-0.079,0-0.16,0-0.238,0 c-20.375,0-30.394-17.984-39.238-34.038c-8.325-15.107-15.519-27.962-28.969-27.962c-0.048,0-0.096,0-0.143,0 c-13.546,0-20.579,12.616-28.725,27.892c-8.657,16.236-18.468,34.108-39.003,34.108 C442.633,349.858,442.553,349.858,442.475,349.858z"/><circle cx="977.266" cy="614.234" r="75.375" fill="#002600"/><circle cx="1052.049" cy="576.25" r="35.017" fill="#002600"/><path fill="#002600" d="M898.615,852.799l-173.981,12.773c-11.383,0.83-22.161-2.185-31.064-7.942 c-14.315,0.51-28.737-5.033-39.136-16.452l-44.335-48.704c27.125-22.577,74.51-61.903,99.152-81.524l23.205,25.497l156.77-11.501 c27.799-2.042,51.991,18.837,54.032,46.638l1.996,27.182C947.294,826.567,926.416,850.758,898.615,852.799z"/><path fill="#002600" d="M960.329,687.048c-19.302,2.386-54.807,17.208-90.06,7.735c4.666-27.907,10.256-61.925,10.256-63.925 h74.781L960.329,687.048z"/><path fill="#918e81" d="M929.332,969.858h0.526c0,0,0-0.102,0-0.178c0,0,0-0.083,0-0.085l0,0 c0-21.712-194.943-104.217-195.002-104.244L556.152,689.915c-14.049-14.049-32.851-20.59-51.243-19.619 c-18.386-0.968-37.135,5.558-51.181,19.604L197.552,950.613l100.545,100.728l46.761-47.773v73.291H766.77 c4.993,0,10.035,0,15.03,0h88.41c37.166,0,67.648-30.409,67.648-67.575v-7.858C937.858,989.875,935.162,978.858,929.332,969.858z M505.709,839.902l44.826,93.957H413.399L505.709,839.902z"/><path fill="#002600" d="M143.753,988.303c0,0-106.007,76.087-96.511,88.708c9.496,12.623,132.945-0.436,132.945-0.436 L143.753,988.303z"/><path fill="#918e81" d="M385.858,786.968c0,0.492-0.399,0.89-0.891,0.89h-1.219c-0.492,0-0.891-0.398-0.891-0.89v-2.22 c0-0.492,0.399-0.89,0.891-0.89h1.219c0.492,0,0.891,0.398,0.891,0.89V786.968z"/><path fill="#002600" d="M239.539,933.858h105.319v142.717l-117.352,0.436c0,0-60.458,5.499-69.953-0.436 c-9.495-5.935-28.448-228.045-18.952-255.344C148.098,793.928,241.912,908.858,239.539,933.858z"/><path fill="#002600" d="M734.523,865.308l21.365-38.797c0,0,74.386-152.729,235.819-83.091 c62.422,26.927-54.542,272.623-54.542,272.623L734.523,865.308z"/><path fill="#e6e2d6" d="M867.304,726.555c0,0-43.756,74.634-40.194,96c3.561,21.366,155.899-81.165,154.312-84.278 c-1.587-3.114-49.323-44.635-109.138-11.722"/><path fill="#e6e2d6" d="M894.999,576.62c0,0-64.904,77.883-32.451,96.427c32.451,18.545,68.612,1.854,86.229,0 c17.618-1.854,30.596-59.34,26.888-68.612C971.956,595.163,894.999,576.62,894.999,576.62z"/><path fill="#e6e2d6" d="M964.804,737.089l-100.778-4.794c0,0,2.885-17.011,6.243-37.071c35.253,9.473,70.758-5.496,90.06-7.882 L964.804,737.089z"/><path fill="#e6e2d6" d="M709.251,710.951c0,0-121.883-105.16-168.173-103.38c-46.292,1.781-102.34,30.188-95.681,90.763 c6.66,60.575,31.64,37.359,47.61,38.755c61.089,5.342,30.821-26.138,53.086-55.374c14.532,16.618,5.666,40.097,7.447,43.511 c1.78,3.415,22.279,10.61,18.823-14.276c-0.54-3.881,64.988,58.885,64.988,58.885L709.251,710.951z"/><path fill="#e6e2d6" d="M779.842,1052.835c41.333-3.562,94.748,0,94.748,0l62.912-70.034l102.511,70.034l-85.892,45.106 l-221.972-11.87C732.148,1086.072,738.51,1056.397,779.842,1052.835z"/><path fill="#002600" d="M1009.229,761.617l64.735,161.993c13.102,34.265,5.698,60.927-2.046,74.29l-33.032,56.976 c-29.716-19.035-81.521-52.326-107.669-69.889l17.295-29.825l-58.326-145.969c-10.346-25.883,2.249-55.251,28.135-65.597 l25.309-10.114C969.514,723.136,998.883,735.732,1009.229,761.617z"/><ellipse cx="976.673" cy="637.461" fill="#e6e2d6" rx="17.805" ry="21.874" transform="matrix(0.8428 0.5383 -0.5383 0.8428 496.7134 -425.4994)"/><path fill="#002600" d="M864.334,588.712l94.535,39.906c0,0,34.587-8.303,30.944-47.25 C986.169,542.42,903.934,518.68,864.334,588.712z"/><path fill="#002600" d="M563.38,731.332c-5.502,0-10.819-4.374-11.093-4.603c-0.831-0.692-0.942-1.926-0.249-2.756 c0.692-0.83,1.923-0.941,2.754-0.251l0,0c1.776,1.476,7.172,4.927,10.744,3.244c3.224-1.523,4.907-7.058,4.87-16.006 c-0.12-28.795-8.849-39.378-8.937-39.482c-0.698-0.82-0.606-2.053,0.209-2.756c0.815-0.704,2.041-0.619,2.75,0.193 c0.399,0.458,9.767,11.559,9.893,42.027c0.045,10.891-2.285,17.291-7.124,19.568C565.956,731.094,564.663,731.332,563.38,731.332z"/><path fill="#002600" d="M523.448,736.959c-0.028,0-0.056,0-0.085-0.002c-0.315-0.013-7.783-0.419-13.975-8.264 c-8.632-10.932-10.374-30.077-5.177-56.903c0.205-1.061,1.227-1.754,2.293-1.549c1.062,0.205,1.754,1.231,1.549,2.293 c-6.191,31.958-1.022,46.86,4.406,53.734c5.093,6.451,11.011,6.777,11.071,6.779c1.079,0.047,1.917,0.959,1.872,2.04 C525.356,736.138,524.49,736.959,523.448,736.959z"/><path fill="#002600" d="M499.176,739.046c-0.135,0-0.272-0.014-0.41-0.043c-0.502-0.106-12.39-2.765-19.875-15.534 c-7.559-12.893-7.802-31.009-0.723-53.847c0.321-1.031,1.408-1.609,2.449-1.29c1.032,0.32,1.609,1.417,1.29,2.449 c-6.74,21.743-6.618,38.803,0.361,50.71c6.623,11.294,17.208,13.662,17.314,13.685c1.056,0.224,1.731,1.264,1.506,2.321 C500.893,738.417,500.08,739.046,499.176,739.046z"/><path fill="#002600" d="M969.751,648.896c-0.784,0-1.522-0.474-1.823-1.248c-1.178-3.023-1.074-5.929,0.308-8.633 c3.565-6.979,14.65-9.939,15.121-10.061c1.047-0.275,2.114,0.354,2.386,1.397c0.274,1.046-0.352,2.115-1.396,2.389 c-2.735,0.719-10.337,3.567-12.628,8.061c-0.86,1.688-0.907,3.464-0.144,5.428c0.393,1.006-0.106,2.142-1.114,2.533 C970.228,648.853,969.988,648.896,969.751,648.896z"/><path fill="#002600" d="M886.082,648.895c-0.139,0-0.28-0.015-0.422-0.045l-15.811-3.479c-0.577-0.126-1.065-0.507-1.33-1.036 c-0.264-0.528-0.275-1.146-0.032-1.684l16.299-35.911c0.447-0.983,1.605-1.42,2.592-0.973c0.983,0.447,1.419,1.606,0.973,2.591 l-15.3,33.709l13.45,2.96c1.056,0.232,1.723,1.277,1.491,2.332C887.79,648.272,886.981,648.895,886.082,648.895z"/><path fill="#002600" d="M755.813,1089.294c-0.125,0-0.251-0.011-0.377-0.036c-1.062-0.207-1.753-1.235-1.547-2.295 c0.153-0.78,4.197-19.13,45.17-23.584c1.06-0.116,2.04,0.659,2.157,1.734c0.117,1.075-0.66,2.041-1.734,2.157 c-38.137,4.146-41.72,20.28-41.75,20.442C757.548,1088.646,756.73,1089.294,755.813,1089.294z"/><path fill="#002600" d="M773.251,1090.227c-0.51,0-1.019-0.199-1.404-0.593c-0.753-0.775-0.735-2.015,0.041-2.768 c0.694-0.676,17.346-16.541,45.649-16.541c1.08,0,1.957,0.877,1.957,1.957c0,1.081-0.877,1.957-1.957,1.957 c-26.731,0-42.763,15.279-42.923,15.434C774.235,1090.042,773.743,1090.227,773.251,1090.227z"/><path fill="#002600" d="M652.699,935.858H344.782c-1.081,0-1.957-0.919-1.957-2s0.876-2,1.957-2h307.917 c1.081,0,1.957,0.919,1.957,2S653.78,935.858,652.699,935.858z"/><path fill="#002600" d="M615.739,936.155c-1.081,0-1.957-0.877-1.957-1.958c0-0.8,0.48-1.487,1.167-1.792 c3.398-2.576,34.625-37.195,54.998-60.074c0.717-0.807,1.956-0.878,2.762-0.161c0.808,0.719,0.879,1.957,0.161,2.764 c-0.135,0.152-13.644,15.32-27.192,30.293C617.694,936.155,617,936.155,615.739,936.155z"/><path fill="#002600" d="M344.78,1055.858c-1.051,0-1.92-0.348-1.955-1.406c-0.036-1.081,0.812-1.742,1.891-1.777l440.572-14.381 c0.055-0.001,0.11,0.059,0.165,0.062c0.325,0.009,35.623,0.898,91.558-56.946c0.752-0.776,1.992-0.782,2.768-0.031 c0.777,0.751,0.798,1.998,0.046,2.775c-56.507,58.434-92.022,57.778-94.48,57.686l-440.499,14.018 C344.824,1055.858,344.802,1055.858,344.78,1055.858z"/><path fill="#002600" d="M592.255,936.155c-0.714,0-1.4-0.391-1.746-1.07c-0.451-0.887-45.372-89.004-67.19-113.754 c-5.01-5.684-8.198-12.126-10.064-18.573L365.67,935.652c-0.806,0.725-2.042,0.658-2.764-0.145 c-0.724-0.803-0.659-2.041,0.144-2.764l148.999-134.167c0.01-0.008,0.06-0.052,0.146-0.13c-2.47-12.15-0.597-23.701,2.198-29.482 c2.076-4.295,4.367-5.106,5.91-5.021c2.128,0.111,3.805,1.829,4.984,5.103c5.158,14.318-4.523,26.312-8.799,30.704 c1.668,6.647,4.756,13.308,9.767,18.991c22.146,25.123,65.892,110.929,67.743,114.569c0.491,0.963,0.106,2.142-0.857,2.631 C592.856,936.087,592.553,936.155,592.255,936.155z M520.086,767.851c-0.21,0.022-1.418,0.808-2.706,4.043 c-2.193,5.513-3.242,14.036-1.862,23.037c4.07-4.9,9.817-14.202,6.087-24.559C520.799,768.133,520.093,767.853,520.086,767.851z"/><path fill="#002600" d="M507.479,844.858c-0.02,0-0.042,0-0.063,0c-0.731,0-1.388-0.255-1.702-0.916 c-1.833-3.843-4.116-16.755-4.371-18.227c-0.184-1.066,0.531-2.028,1.595-2.213c1.073-0.181,2.078,0.555,2.263,1.62 c0.474,2.745,1.638,8.941,2.76,13.294l7.781-13.899c0.527-0.942,1.724-1.275,2.663-0.749c0.943,0.528,1.28,1.721,0.751,2.665 l-9.97,17.619C508.839,844.676,508.186,844.858,507.479,844.858z"/><path fill="#e6e2d6" d="M931.216,986.944c-0.334,0-0.671-0.085-0.981-0.265c-0.934-0.541-1.252-1.739-0.711-2.674l16.817-29.002 l-35.388-88.568c-0.401-1.003,0.086-2.143,1.09-2.543c1.004-0.401,2.143,0.086,2.543,1.09l35.743,89.453 c0.223,0.558,0.177,1.188-0.124,1.707l-17.295,29.826C932.547,986.594,931.89,986.944,931.216,986.944z"/><path fill="#e6e2d6" d="M719.002,852.003c-0.539,0-1.075-0.221-1.462-0.655c-0.719-0.807-0.647-2.044,0.159-2.763l107.902-96.118 c0.808-0.72,2.044-0.647,2.764,0.159c0.719,0.808,0.647,2.045-0.159,2.764l-107.902,96.118 C719.93,851.84,719.465,852.003,719.002,852.003z"/><path fill="#e6e2d6" d="M732.375,776.012c-0.602,0-1.198-0.256-1.65-0.735c-0.741-0.785-0.706-2.024,0.081-2.766 c0.073-0.069,0.149-0.13,0.228-0.186c0.663-3.945,0.28-20.681-0.531-35.771c-0.046-0.85,0.462-1.63,1.256-1.934 c0.791-0.302,1.692-0.06,2.225,0.603l26.802,33.388c0.677,0.843,0.542,2.075-0.301,2.751c-0.843,0.678-2.074,0.542-2.752-0.301 l-23.014-28.669c1.531,32.146-0.214,32.892-1.507,33.447C732.94,775.956,732.656,776.012,732.375,776.012z"/><path fill="#e6e2d6" d="M960.917,695.879c-1.002,0-1.856-0.767-1.947-1.785l-2.44-27.565c-0.096-1.077,0.701-2.026,1.777-2.122 c1.056-0.095,2.026,0.699,2.122,1.776l2.44,27.565c0.096,1.077-0.701,2.027-1.777,2.122 C961.034,695.877,960.976,695.879,960.917,695.879z"/><circle cx="896.778" cy="161.232" r="45.622" fill="#636155"/><path fill="#FFF" d="M918.796,176.144l-13.423-13.422l13.456-13.456c1.346-1.345,0.612-4.261-1.59-6.464 c-2.205-2.204-5.12-2.937-6.465-1.589l-13.456,13.455l-13.488-13.488c-1.346-1.346-4.262-0.613-6.464,1.591 c-2.205,2.203-2.938,5.118-1.59,6.464l13.487,13.489l-13.457,13.456c-1.346,1.346-0.612,4.262,1.59,6.465 c2.204,2.204,5.119,2.937,6.465,1.59l13.457-13.456l13.424,13.423c1.346,1.347,4.261,0.613,6.464-1.59 C919.411,180.407,920.144,177.492,918.796,176.144z"/><path fill="#f2f2f2" d="M421.881,435.164c0,26.896-21.801,48.697-48.698,48.697c-26.894,0-48.696-21.801-48.696-48.697 c0-26.896,21.802-48.698,48.696-48.698C400.08,386.466,421.881,408.268,421.881,435.164z"/><circle cx="498.902" cy="435.164" r="48.698" fill="#f2f2f2"/><circle cx="624.619" cy="435.164" r="48.698" fill="#f2f2f2"/><path fill="#002600" d="M531.866,449.358c0,2.671-1.824,5.5-4.071,5.5H470.82c-2.249,0-4.071-2.829-4.071-5.5l0,0 c0-2.671,1.822-5.5,4.071-5.5h56.975C530.042,443.858,531.866,446.688,531.866,449.358L531.866,449.358z"/><path fill="#002600" d="M373.532,469.949c-16.159,0-29.306-13.146-29.306-29.306c0-1.441,1.168-2.609,2.609-2.609 c1.441,0,2.61,1.168,2.61,2.609c0,13.281,10.805,24.087,24.086,24.087c13.281,0,24.084-10.806,24.084-24.087 c0-1.441,1.168-2.609,2.61-2.609c1.441,0,2.609,1.168,2.609,2.609C402.835,456.803,389.689,469.949,373.532,469.949z"/><path fill="#002600" d="M651.66,469.949c-1.441,0-2.609-1.168-2.609-2.609c0-13.282-10.805-24.087-24.087-24.087 c-13.28,0-24.084,10.806-24.084,24.087c0,1.441-1.168,2.609-2.609,2.609s-2.609-1.168-2.609-2.609 c0-16.16,13.146-29.306,29.303-29.306c16.159,0,29.306,13.146,29.306,29.306C654.269,468.781,653.101,469.949,651.66,469.949z"/></svg>