<svg xmlns="http://www.w3.org/2000/svg" viewBox="0 0 64 64"><path fill="#222" d="M42.7285,37.022c-6.18,0-8.9287-5.83-9.2685-9.7476-.19-2.1738-.6329-7.2661,2.34-10.5093a8.9658,8.9658,0,0,1,6.9287-2.6567,1.5,1.5,0,0,1,0,3,6.0437,6.0437,0,0,0-4.7178,1.6841c-2.081,2.27-1.7177,6.4409-1.5625,8.2217.17,1.95,1.628,7.0078,6.28,7.0078a1.5,1.5,0,0,1,0,3Z"/><path fill="#222" d="M42.7285 37.022a1.5 1.5 0 0 1 0-3c4.6514 0 6.11-5.0586 6.28-7.0078.1543-1.7808.5166-5.9532-1.5645-8.2222a6.04 6.04 0 0 0-4.7158-1.6836 1.5 1.5 0 0 1 0-3 8.9665 8.9665 0 0 1 6.9278 2.6558c2.9716 3.2417 2.53 8.3349 2.3408 10.51C51.6563 31.1929 48.9063 37.022 42.7285 37.022zM25.0371 54.65A1.5 1.5 0 0 1 23.55 53.33c-.5391-4.4824.0264-7.6875 1.7275-9.7974 1.3711-1.7007 3.417-2.6572 6.2559-2.9248 5.0381-.4756 6.4863-1.8545 6.2-5.9013a1.5 1.5 0 1 1 2.9922-.212c.5117 7.2295-4.2168 8.6568-8.9111 9.1-2.0176.19-3.3536.77-4.2012 1.8212-1.1514 1.4273-1.5156 3.97-1.085 7.5562A1.5009 1.5009 0 0 1 25.0371 54.65z"/><path fill="#222" d="M60.3047 54.1426c-.0459 0-.0918-.002-.1377-.0064a1.5 1.5 0 0 1-1.3584-1.6294c.6328-6.956-1.5078-8.5678-5.166-8.913-4.6934-.4424-9.4229-1.87-8.9121-9.1a1.5 1.5 0 0 1 2.9922.212c-.2862 4.0468 1.163 5.4257 6.2011 5.9013 7.98.753 8.3155 7.3067 7.8731 12.1709A1.501 1.501 0 0 1 60.3047 54.1426zM18.6709 28.6694c-5.3506 0-7.73-5.0268-8.0234-8.4057-.1621-1.8579-.54-6.2085 2.0283-9.0093a7.7583 7.7583 0 0 1 5.9951-2.3086 1.5 1.5 0 0 1 0 3 4.8531 4.8531 0 0 0-3.7842 1.3359c-1.6758 1.8287-1.3779 5.2579-1.251 6.7222.1368 1.5757 1.3086 5.6655 5.0352 5.6655a1.5 1.5 0 0 1 0 3z"/><path fill="#222" d="M18.6709,28.6694a1.5,1.5,0,0,1,0-3c3.7256,0,4.8975-4.09,5.0342-5.6655.1162-1.3384.4267-4.8921-1.25-6.7217a4.85,4.85,0,0,0-3.7842-1.3364,1.5,1.5,0,0,1,0-3,7.7561,7.7561,0,0,1,5.9961,2.31c2.5684,2.8022,2.1885,7.1513,2.0264,9.0088C26.4,23.6426,24.0215,28.6694,18.6709,28.6694Z"/><path fill="#222" d="M3.8125 43.4741a1.5 1.5 0 0 1-1.4873-1.3213c-.46-3.833.0322-6.583 1.5039-8.4082a7.443 7.443 0 0 1 5.417-2.5434c4.1514-.3916 5.2236-1.4019 4.99-4.7a1.5 1.5 0 1 1 2.9922-.2119c.4453 6.2778-3.6435 7.5156-7.7012 7.8979a4.5931 4.5931 0 0 0-3.3632 1.44c-.9239 1.1465-1.2139 3.2212-.86 6.1675a1.5 1.5 0 0 1-1.4912 1.6787zM33.4316 43.0479c-.0459 0-.0918-.002-.1377-.0064a1.5 1.5 0 0 1-1.3584-1.6294c.57-6.2593-1.625-6.9888-4.122-7.2246-4.0576-.3823-8.1446-1.62-7.7012-7.8975a1.5 1.5 0 0 1 2.9922.211c-.2324 3.2983.84 4.3086 4.99 4.7 6.917.6518 7.21 6.2949 6.8291 10.4824A1.501 1.501 0 0 1 33.4316 43.0479z"/></svg>