<svg xmlns="http://www.w3.org/2000/svg" version="1.0" viewBox="0 0 1133.857 1133.858"><path fill="#f2f2f2" d="M597.043,913.67c0,1.95-1.582,3.531-3.531,3.531H242.455c-1.949,0-3.53-1.581-3.53-3.531V696.956 c0-1.95,1.581-3.531,3.53-3.531h351.057c1.949,0,3.531,1.581,3.531,3.531V913.67z"/><path fill="#FFF" d="M394.086,759.932c0,1.95-1.58,3.531-3.531,3.531h-124.3c-1.951,0-3.531-1.581-3.531-3.531V756.4 c0-1.95,1.58-3.531,3.531-3.531h124.3c1.951,0,3.531,1.581,3.531,3.531V759.932z"/><path fill="#FFF" d="M563.986,796.181c0-1.949-1.581-3.53-3.531-3.53h-294.2c-1.951,0-3.531,1.581-3.531,3.53v3.532 c0,1.95,1.58,3.531,3.531,3.531h294.2c1.95,0,3.531-1.581,3.531-3.531V796.181z"/><path fill="#FFF" d="M563.986,835.962c0-1.95-1.581-3.531-3.531-3.531h-294.2c-1.951,0-3.531,1.581-3.531,3.531v3.532 c0,1.95,1.58,3.531,3.531,3.531h294.2c1.95,0,3.531-1.581,3.531-3.531V835.962z"/><path fill="#FFF" d="M563.986,875.743c0-1.95-1.581-3.531-3.531-3.531h-294.2c-1.951,0-3.531,1.581-3.531,3.531v3.532 c0,1.95,1.58,3.531,3.531,3.531h294.2c1.95,0,3.531-1.581,3.531-3.531V875.743z"/><circle cx="522.271" cy="741.216" r="30.722" fill="#FFF"/><path fill="#f2f2f2" d="M536.793,681.346c0,2.348-1.904,4.251-4.252,4.251H109.843c-2.348,0-4.251-1.904-4.251-4.251V420.406 c0-2.348,1.903-4.251,4.251-4.251h422.698c2.348,0,4.252,1.904,4.252,4.251V681.346z"/><path fill="#FFF" d="M292.418,496.234c0,2.348-1.903,4.251-4.252,4.251H138.499c-2.349,0-4.252-1.904-4.252-4.251v-4.253 c0-2.348,1.903-4.251,4.252-4.251h149.667c2.349,0,4.252,1.904,4.252,4.251V496.234z"/><path fill="#FFF" d="M496.99,539.88c0-2.348-1.903-4.251-4.252-4.251H138.499c-2.349,0-4.252,1.904-4.252,4.251v4.253 c0,2.348,1.903,4.251,4.252,4.251h354.239c2.349,0,4.252-1.904,4.252-4.251V539.88z"/><path fill="#FFF" d="M496.99,587.779c0-2.348-1.903-4.251-4.252-4.251H138.499c-2.349,0-4.252,1.904-4.252,4.251v4.253 c0,2.348,1.903,4.251,4.252,4.251h354.239c2.349,0,4.252-1.904,4.252-4.251V587.779z"/><path fill="#FFF" d="M496.99,635.679c0-2.348-1.903-4.251-4.252-4.251H138.499c-2.349,0-4.252,1.903-4.252,4.251v4.252 c0,2.348,1.903,4.251,4.252,4.251h354.239c2.349,0,4.252-1.903,4.252-4.251V635.679z"/><circle cx="446.763" cy="473.699" r="36.991" fill="#FFF"/><path fill="#002600" d="M671.544,380.347c0,2.761-2.239,5-5,5H169.425c-2.761,0-5-2.239-5-5V73.467c0-2.761,2.239-5,5-5h497.119 c2.761,0,5,2.239,5,5V380.347z"/><path fill="#55ab67" d="M384.144,162.645c0,2.761-2.238,5-5,5H203.126c-2.762,0-5-2.239-5-5v-5.001c0-2.761,2.238-5,5-5h176.018 c2.762,0,5,2.239,5,5V162.645z"/><path fill="#55ab67" d="M624.733,213.976c0-2.761-2.238-5-5-5H203.126c-2.762,0-5,2.239-5,5v5.001c0,2.761,2.238,5,5,5h416.607 c2.762,0,5-2.239,5-5V213.976z"/><path fill="#55ab67" d="M624.733,270.308c0-2.761-2.238-5-5-5H203.126c-2.762,0-5,2.239-5,5v5.001c0,2.761,2.238,5,5,5h416.607 c2.762,0,5-2.239,5-5V270.308z"/><path fill="#55ab67" d="M624.733,326.64c0-2.761-2.238-5-5-5H203.126c-2.762,0-5,2.239-5,5v5.001c0,2.761,2.238,5,5,5h416.607 c2.762,0,5-2.239,5-5V326.64z"/><circle cx="565.663" cy="136.142" r="43.504" fill="#55ab67"/><path fill="#55ab67" d="M993.782,919.816c-2.425,3.229-23.913,9.313-49.862,12.646c-18.053,2.321-38.245,3.309-55.681,1.048 c-20.091-10.056-65.262-94.667-81.342-125.694c-3.638-7.075-5.799-11.371-5.799-11.371s-3.332,86.359-2.775,124.728 c-7.607,3.948-29.733-0.598-50.705-6.394c-4.277-1.193-8.514-2.429-12.564-3.643c-17.619-5.345-31.87-10.525-31.87-10.525 s-20.563-128.84-21.94-173.438c-1.377-44.619,6.99-226.776,7.177-207.634c0.144,14.249,106.141,7.299,160.383,2.797l1.295-0.105 c17.951-1.5,29.917-2.692,29.917-2.692s0.083,0.165,0.267,0.474c2.241,4.296,19.369,37.627,25.558,72.171 c6.644,37.011-17.6,43.878-17.6,43.878s9.582,12.832,17.6,49.348C922.084,767.66,997.895,914.327,993.782,919.816z"/><path fill="#3c9351" d="M801.099,796.446c0,0-3.332,86.359-2.775,124.728c-7.607,3.948-29.733-0.598-50.705-6.394 c-1.624-32.776-12.153-252.273-2.755-270.799c11.778,42.141,14.098,45.237,25.995,82.258c11.899,37.02,22.753,52.713,36.039,81.578 C803.26,800.743,801.099,796.446,801.099,796.446z"/><path fill="#3c9351" d="M993.782,919.816c-2.425,3.229-23.913,9.313-49.862,12.646c-9.602-26.465-107.959-279.818-84.242-288.482 c45.646-16.673-10.875-121.643-10.875-121.643l1.295-0.105l30.184-2.218c2.241,4.296,19.369,37.627,25.558,72.171 c6.644,37.011-17.6,43.878-17.6,43.878s9.582,12.832,17.6,49.348C922.084,767.66,997.895,914.327,993.782,919.816z"/><path fill="#e6e2d6" d="M753.212,967.79c0-3.429-20.803-57.467-20.803-57.467l32.967,8.908l9.085,45.13 c0,0-2.056,11.654-11.65,7.542C753.212,967.79,753.212,967.79,753.212,967.79z"/><path fill="#002600" d="M788.165,1037.017c-7.546,10.281-15.072,6.848-28.107,8.903c-13.016,2.057-65.1,13.036-84.304,11.658 c-19.185-1.376-50.026-4.112-62.363-21.938c-12.338-17.827-8.904-23.871-6.17-32.49c1.051-3.289,2.982-4.317,5.204-4.213 c3.638,0.121,8.019,3.185,10.567,4.213c4.112,1.647,21.919,2.45,32.2,0c10.28-2.466,30.351-5.201,42.583-15.481 c12.254-10.28,23.914-14.887,23.914-14.887c0-0.205-11.66-28.989,0-23.501c11.638,5.49,16.449,8.903,19.862,8.225 c3.434-0.679,17.148-8.04,19.204,3.185c2.057,11.208,10.281,6.602,17.128,0c6.848-6.619,14.394,0.249,6.169,17.376 c0,13.88,3.826,30.884,4.092,38.678c0.063,1.847-0.062,3.165-0.493,3.823C785.43,1023.98,795.691,1026.736,788.165,1037.017z"/><path fill="#e6e2d6" d="M941.697,968.473c0,0-17.507-33.103-16.449-33.685c1.057-0.582,32.934-4.494,32.934-4.494l6.134,38.178 H941.697z"/><path fill="#002600" d="M1030.115,1078.819c-10.98,22.618-37.688,25.353-54.838,23.995c-12.604-1.007-30.761-1.276-39.766-15.525 c-3.228-5.121-5.284-12.048-5.471-21.485c-0.678-35.654-4.339-39.622-4.833-42.5c-0.35-1.956,1.871-8.495,4.155-14.807 c1.604-4.417,3.271-8.715,4.111-11.245c2.057-6.169,2.057-6.169,2.057-6.169c-0.698-2.056-21.939-19.184,0-22.617 c21.919-3.414,36.313-2.057,41.123,0c4.791,2.056-2.755,14.393-4.811,22.617c-2.057,8.225,34.276,26.751,45.236,36.333 c0,0,0,0.021,0.021,0.021C1028.081,1037.037,1041.074,1056.221,1030.115,1078.819z"/><path fill="#002600" d="M883.608,931.336c-0.313,0-0.623-0.141-0.829-0.408c-0.282-0.37-28.623-37.545-60.365-94.069 c-29.303-52.177-67.59-131.996-83.582-215.944c-0.108-0.566,0.263-1.111,0.828-1.219c0.57-0.104,1.111,0.265,1.219,0.829 c15.939,83.672,54.125,163.272,83.352,215.314c31.672,56.396,59.922,93.455,60.204,93.822c0.35,0.457,0.264,1.111-0.193,1.461 C884.052,931.266,883.829,931.336,883.608,931.336z"/><path fill="#002600" d="M750.137,873.986c-0.021,0-0.042-0.001-0.063-0.002c-0.574-0.034-1.012-0.527-0.979-1.101 c0.6-10.194-1.338-61.802-6.98-84.804c-1.913,1.352-4.275,1.674-6.702,0.865c-3.912-1.305-5.873-5.419-6.08-8.918 c-0.179-2.992,0.861-5.393,2.712-6.265c1.371-0.644,3.723-0.741,7.166,2.464c1.423,1.324,2.693,3.963,3.825,7.55 c2.115-4.2,4.039-15.214-7.563-41.319c-16.57-37.285,9.602-60.607,9.867-60.838c0.432-0.375,1.093-0.333,1.469,0.103 c0.378,0.435,0.332,1.092-0.102,1.47c-0.254,0.221-25.258,22.579-9.329,58.418c13.365,30.074,9.304,41.176,6.432,44.844 c6.322,23.771,7.877,77.869,7.366,86.552C751.143,873.559,750.684,873.986,750.137,873.986z M733.686,775.489 c-0.277,0-0.528,0.052-0.752,0.158c-1.031,0.486-1.643,2.196-1.521,4.255c0.165,2.799,1.671,6.068,4.659,7.066 c2.061,0.685,3.982,0.293,5.463-1.102c-1.112-3.963-2.356-6.824-3.744-8.114C736.206,776.276,734.761,775.489,733.686,775.489z"/><path fill="#002600" d="M976.316,919.907c-0.394,0-0.771-0.224-0.946-0.604c-0.171-0.368-17.16-36.941-25.839-45.621 c-8.852-8.852-16.457-18.503-16.532-18.599c-0.165-0.21-0.242-0.474-0.219-0.739c0.015-0.15,1.351-15.291-0.002-38.912 c-0.294-5.149-1.332-8.383-3.087-9.616c-1.816-1.274-4.47-0.482-7.278,0.354c-4.198,1.25-9.419,2.807-11.524-4.208 c-1.502-5.006-6.51-24.49-12.31-47.05c-9.834-38.256-23.302-90.647-25.632-95.347c-3.059-6.164-0.068-16.954,3.715-30.616 c1.118-4.032,2.273-8.2,3.372-12.595c4.646-18.583-14.794-55.646-14.99-56.018c-0.27-0.509-0.075-1.139,0.434-1.409 c0.51-0.269,1.139-0.073,1.408,0.434c0.819,1.549,20.011,38.144,15.169,57.498c-1.104,4.419-2.263,8.602-3.383,12.646 c-3.666,13.232-6.562,23.684-3.858,29.133c2.429,4.896,15.378,55.274,25.784,95.754c5.794,22.539,10.797,42.005,12.287,46.971 c1.436,4.788,4.189,4.222,8.934,2.809c3.161-0.943,6.432-1.913,9.07-0.062c2.367,1.662,3.629,5.221,3.97,11.202 c1.237,21.604,0.237,36.188,0.032,38.8c1.384,1.735,8.254,10.235,16.113,18.095c8.94,8.94,25.555,44.702,26.257,46.22 c0.242,0.522,0.015,1.142-0.508,1.383C976.611,919.876,976.463,919.907,976.316,919.907z"/><path fill="#e6e2d6" d="M760.003,280.054c0,0-0.145,12.379-1.192,27.512c-1.852,5.245-3.249,9.068-3.249,9.932 c0,1.706-11.577,31.891-22.144,55.147c-5.431,3.783-11.886,7.546-19.165,11.185c-12.316,6.148-18.851,8.146-35.22,12.917 c-37.71,10.959-53.693,2.153-55.479-1.689c-1.038-2.234-14.908-70.044-14.03-95.465c1.165-33.784,8.54-80.667,1.693-86.157 c-6.867-5.49-17.827-8.225-11.043-18.506c-7.605-2.734-10.896-18.505,0.762-19.883c0-6.847-5.489-15.75,13.016-9.582 c2.757-19.883,15.072-2.056,13.715-4.811c-1.378-2.735-13.715-37.69-3.434-34.955c8.903,2.383,14.208,31.479,15.483,39.23 c1.11-0.492,4.441-0.39,13.16,1.893c18.361,4.811,1.52,22.618,0.143,37.011c-1.355,14.393,6.848,19.883,15.072,57.573 c8.225,37.709,9.602,74.022,9.602,74.022s6.149-4.299,15.854-12.234c8.06-6.58,18.568-15.648,30.062-26.833 C748.981,271.687,760.003,280.054,760.003,280.054z"/><path fill="#002600" d="M757.385,279.113c0,0-0.145,12.377-1.193,27.511c-1.851,5.243-3.248,9.068-3.248,9.932 c0,1.707-11.576,31.891-22.145,55.146l-19.164,11.187c-4.523-18.238-14.662-45.216-20.706-60.638 c8.06-6.58,18.567-15.646,30.062-26.832C746.363,270.743,757.385,279.113,757.385,279.113z"/><path fill="#002600" d="M686.731,527.085c0,0-7.598-101.583,31.527-174.775c39.126-73.195,30.961-66.198,39.126-73.195 c11.594-5.044,36.771,7.395,41.657,6.026c4.892-1.372,20.654-7.237,20.654-7.237s43.867,161.45,50.72,181.327 c6.854,19.875,15.765,64.426,15.765,64.426s-70.597,38.383-143.247,23.989C710.009,540.199,686.731,527.085,686.731,527.085z"/><path fill="#e6e2d6" d="M852.585,494.867c-14.6,10.896-24.674,23.996-24.674,23.996s4.255,18.443,0,22.617 c-4.235,4.155,8.924,9.582,6.169,17.128c-2.735,7.546-16.449-4.791-16.449-4.791s3.514,29.488,0.429,37.02 c-3.536,8.637-7.956,2.726-8.653-0.008c-0.68-2.734-4.564-23.574-4.564-23.574s-1.871,34.533-8.575,36.59 c-6.725,2.057-6.046-7.526-6.046-7.526l-0.02-17.148c0,0-7.526,12.337-11.639,11.658s-1.357-20.562,0-28.787 c1.378-8.225,1.378-14.394,1.378-14.394s-17.128,0-16.449-4.111c0.679-4.113,12.337-3.434,18.505-13.016 c6.169-9.603,13.715-41.824,23.995-62.385c10.282-20.562,27.637-44.537,27.637-44.537s-14.62-30.164-17.354-41.124 c0,0,0-0.02-0.021-0.041c-2.755-11.042-1.281-50.129-1.281-57.655c0-7.219-2.949-22.518-9.854-26.749 c-0.021-0.06,17.817-33.334,41.628-17.687c10.608,6.97,22.391,31.027,32.427,56.463c13.673,34.585,24.138,71.699,24.138,71.699 S912.215,451.008,852.585,494.867z"/><path fill="#e6e2d6" d="M772.4,154.918c0,0-40.184,52.368-21.821,74.705C762.965,244.69,772.4,245.39,772.4,245.39l-3.837,32.158 c0,0-17.405-2.004-17.938,11.707c-0.376,9.665,2.767,18.724,20.202,20.77c25.432,2.984,29.652-25.316,29.652-25.316l-10.262-2.307 c0,0,1.971-27.23,8.823-29.971c6.856-2.739,22.373-9.362,27.857-17.586c2.466,0.444,12.67,0.95,18.153-10.016 c5.482-10.968-5.485-15.08-13.711-9.597c-8.225,5.484,18.032-21.933,15.186-34.27C843.68,168.625,772.4,154.918,772.4,154.918z"/><path fill="#918e81" d="M862.29,169.375c-2.528,22.124-20.664,33.515-20.664,33.515h-8.225c0,0-116.481-17.272-95.325-83.46 c0-0.042,0.02-0.103,0.042-0.145c12.828-39.806,53.543-52.391,54.817-52.762c-0.822,1.11-24.263,33.063-8.472,43.839 c16.038,10.979,64.708,2.754,75.668,38.388C862.495,156.42,862.969,163.308,862.29,169.375z"/><path fill="#918e81" d="M851.227,216.602c0,0,14.393-22.618,0-28.787c-14.395-6.168-23.306,28.787-23.306,28.787 s21.426-11.92,17.132,8.227C841.843,229.553,851.227,216.602,851.227,216.602z"/><path fill="#002600" d="M879.173,336.808c-22.866,3.783-62.899,45.667-62.899,45.667s0-0.02-0.021-0.041 c-3.207-12.851-9.583-54.097-9.583-61.645c0-7.217-4.379-25.105-4.769-26.627c0.041-0.083,0.061-0.186,0.101-0.267 c0-0.021,0-0.021,0.021-0.041c1.81-2.652,20.912-29.157,44.723-13.51C857.354,287.315,869.137,311.373,879.173,336.808z"/><path fill="#002600" d="M765.898,222.863c-0.031,0-0.063-0.002-0.095-0.004c-1.836-0.167-7.904-0.926-8.899-3.676 c-0.265-0.729-0.295-1.884,1.061-3.239c3.182-3.182,6.064-16.263,6.907-21.035c0.1-0.567,0.641-0.946,1.207-0.845 c0.567,0.101,0.945,0.641,0.845,1.208c-0.128,0.727-3.189,17.851-7.484,22.146c-0.212,0.211-0.691,0.737-0.576,1.056 c0.371,1.025,3.986,2.022,7.129,2.31c0.573,0.053,0.996,0.56,0.943,1.133C766.887,222.456,766.433,222.863,765.898,222.863z"/><path fill="#002600" d="M768.563,278.591c-0.109,0-0.22-0.017-0.33-0.054c-0.546-0.182-0.841-0.771-0.658-1.317 c2.363-7.095,3.504-26.517,3.739-30.963c-3.316-0.695-14.384-3.973-22.756-17.726c-9.789-16.083,9.309-52.974,10.126-54.536 c0.267-0.51,0.896-0.706,1.407-0.44c0.51,0.267,0.706,0.897,0.439,1.407c-0.195,0.372-19.371,37.404-10.192,52.486 c9.194,15.105,22.062,16.893,22.19,16.909c0.539,0.068,0.938,0.539,0.912,1.082c-0.044,0.983-1.135,24.173-3.89,32.439 C769.406,278.315,769,278.591,768.563,278.591z"/><path fill="#002600" d="M829.426,236.473c-1.256,0-2.331-0.245-3.104-0.761c-0.479-0.319-0.608-0.966-0.289-1.445 c0.318-0.479,0.964-0.609,1.445-0.289c1.54,1.025,6.173,0.239,10.357-2.535c2.449-1.624,7.993-6.211,6.567-13.716 c-0.289-1.529-0.996-2.541-2.158-3.093c-3.713-1.761-11.24,1.485-13.826,2.886c-0.506,0.273-1.139,0.086-1.413-0.42 c-0.274-0.506-0.086-1.138,0.419-1.413c0.418-0.227,10.281-5.514,15.713-2.937c1.781,0.846,2.896,2.389,3.313,4.588 c1.169,6.149-1.552,11.923-7.464,15.842C835.806,235.288,832.183,236.473,829.426,236.473z"/><path fill="#002600" d="M628.697,190.295c-0.647,0-1.256-0.125-1.816-0.377c-1.532-0.695-3.324-2.642-3.159-7.973 c0.378-12.2,12.887-18.765,13.419-19.039c0.514-0.261,1.139-0.061,1.402,0.451s0.062,1.14-0.449,1.403 c-0.12,0.062-11.949,6.29-12.288,17.25c-0.102,3.264,0.586,5.397,1.936,6.01c1.44,0.65,3.752-0.321,6.193-2.601 c5.329-4.974,11.197-5.705,11.444-5.733c0.575-0.074,1.09,0.344,1.155,0.915c0.066,0.572-0.343,1.089-0.915,1.155 c-0.052,0.006-5.456,0.7-10.262,5.186C633.006,189.138,630.673,190.295,628.697,190.295z"/><path fill="#002600" d="M626.49,194.108c-1.748,0-3.544-1.166-5.346-3.473c-1.119-1.435-10.857-14.401-8.193-27.879 c0.928-4.684,2.864-7.315,5.758-7.822c4.262-0.739,8.945,3.676,9.851,5.182c0.297,0.493,0.138,1.133-0.355,1.43 c-0.493,0.296-1.134,0.138-1.43-0.355c-0.578-0.959-4.574-4.757-7.706-4.204c-1.959,0.343-3.329,2.42-4.071,6.173 c-2.486,12.569,6.731,24.835,7.79,26.192c1.478,1.891,2.859,2.803,3.957,2.654c1.295-0.179,2.25-1.84,2.482-2.408 c0.219-0.533,0.831-0.786,1.359-0.569c0.532,0.218,0.787,0.826,0.569,1.359c-0.056,0.135-1.382,3.304-4.126,3.683 C626.851,194.096,626.671,194.108,626.49,194.108z"/><path fill="#002600" d="M621.096,194.916c-2.205,0-5.1-0.707-8.23-3.343c-1.398-1.177-13.727-14.249-13.727-23.948 c0-2.335,0.775-3.979,2.301-4.887c3.862-2.297,10.977,1.447,11.775,1.881c0.506,0.275,0.692,0.907,0.419,1.413 c-0.276,0.506-0.909,0.693-1.414,0.419c-1.884-1.023-7.302-3.359-9.716-1.921c-0.861,0.513-1.281,1.525-1.281,3.095 c0,8.314,10.783,20.5,12.984,22.353c5.458,4.596,9.854,2.279,10.039,2.178c0.504-0.275,1.137-0.095,1.415,0.406 s0.104,1.13-0.396,1.412C625.144,194.043,623.545,194.916,621.096,194.916z"/><path fill="#002600" d="M606.675,198.741c-1.392,0-2.815-0.182-4.226-0.627c-3.755-1.185-6.721-4.014-8.813-8.408 c-2.062-4.33-2.32-7.956-0.769-10.776c2.306-4.191,7.714-4.89,7.942-4.917c0.574-0.064,1.092,0.338,1.16,0.909 c0.068,0.571-0.338,1.089-0.907,1.16l0,0c-0.046,0.005-4.594,0.609-6.376,3.863c-1.202,2.198-0.924,5.181,0.831,8.865 c1.833,3.851,4.377,6.313,7.559,7.316c5.395,1.704,11.257-1.098,13.526-2.382c0.5-0.284,1.137-0.107,1.42,0.395 c0.284,0.501,0.107,1.137-0.394,1.42C615.694,196.652,611.381,198.741,606.675,198.741z"/><path fill="#002600" d="M779.591,592.045c-0.534,0-0.94-0.091-1.194-0.17c-0.375-0.02-0.827-0.176-1.248-0.565 c-3.738-3.454-1.264-22.629,1.471-38.106c1.832-10.381,6.775-32.423,6.825-32.644c0.126-0.561,0.685-0.915,1.244-0.789 c0.562,0.126,0.915,0.684,0.789,1.246c-0.05,0.221-4.982,22.214-6.806,32.549c-5.68,32.154-2.551,35.868-2.107,36.219 c0.154,0,0.308,0.035,0.448,0.102c0.021,0.01,4.521,1.648,10.237-11.143c0.234-0.524,0.849-0.763,1.377-0.526 c0.525,0.235,0.762,0.851,0.526,1.377c-3.034,6.787-6.272,10.853-9.629,12.085C780.771,591.957,780.119,592.045,779.591,592.045z"/><path fill="#002600" d="M794.961,604.273c-0.234,0-0.462-0.021-0.683-0.059c-2.663-0.464-5.4-3.741-5.118-9.84 c0.309-6.693,0.138-23.803,0.046-32.994c-0.026-2.66-0.046-4.663-0.046-5.567c0-0.575,0.466-1.042,1.041-1.042 c0.576,0,1.043,0.467,1.043,1.042c0,0.901,0.02,2.896,0.047,5.547c0.091,9.212,0.264,26.359-0.049,33.11 c-0.211,4.574,1.59,7.377,3.394,7.69c1.65,0.282,3.25-1.448,4.198-4.524c2.752-8.953,4.537-35.179,4.13-37.54 c-0.003-0.017-0.006-0.034-0.01-0.05c-0.108-0.563,0.259-1.107,0.82-1.22c0.558-0.109,1.108,0.252,1.224,0.813 c0.002,0.011,0.004,0.022,0.006,0.033c0.249,1.297,0.61,3.91,1.066,7.213c1.103,7.988,2.771,20.058,4.29,23.524 c1.331,3.038,2.774,4.688,3.858,4.428c2.192-0.531,4.955-8.108,4.289-18.772c-0.794-12.761-1.901-22.031-1.912-22.124 c-0.048-0.402,0.142-0.798,0.487-1.01c0.346-0.214,0.784-0.208,1.121,0.017c0.077,0.049,7.614,5.02,11.623,7.023 c1.251,0.626,2.313-0.042,2.89-0.878c1.412-2.051,0.92-6.104-3.494-10.15c-0.424-0.389-0.453-1.048-0.064-1.471 c0.389-0.424,1.047-0.454,1.473-0.065c5.362,4.915,5.773,10.005,3.802,12.869c-1.325,1.926-3.552,2.554-5.538,1.561 c-2.908-1.455-7.451-4.313-9.984-5.942c0.376,3.499,1.107,10.879,1.678,20.042c0.589,9.444-1.448,19.855-5.879,20.928 c-2.276,0.556-4.383-1.337-6.258-5.616c-1.378-3.144-2.748-11.987-3.854-19.829c-0.698,9.236-2.079,21.327-3.771,26.831 C799.451,602.712,797.01,604.273,794.961,604.273z"/><path fill="#002600" d="M833.627,424.641c-0.225,0-0.452-0.073-0.643-0.223c-0.452-0.355-0.531-1.011-0.176-1.463 c0.099-0.126,10.013-12.676,22.984-22.915c0.451-0.355,1.107-0.279,1.464,0.172s0.278,1.107-0.173,1.464 c-12.77,10.081-22.539,22.442-22.637,22.566C834.242,424.504,833.937,424.641,833.627,424.641z"/><path fill="#FFF" d="M788.165,1037.017c-7.546,10.281-15.072,6.848-28.107,8.903c-13.016,2.057-65.1,13.036-84.304,11.658 c-19.185-1.376-50.026-4.112-62.363-21.938c-12.338-17.827-8.904-23.871-6.17-32.49c1.051-3.289,2.982-4.317,5.204-4.213 c5.18,15.317,15.358,32.321,35.14,35.818c37.524,6.599,97.813-5.738,111.877-11.907c6.477-2.835,18.073-4.811,28.703-6.104 c0.063,1.847-0.062,3.165-0.493,3.823C785.43,1023.98,795.691,1026.736,788.165,1037.017z"/><path fill="#FFF" d="M1030.115,1078.819c-10.98,22.618-37.688,25.353-54.838,23.995c-12.604-1.007-30.761-1.276-39.766-15.525 c-3.228-5.121-5.284-12.048-5.471-21.485c-0.678-35.654-4.339-39.622-4.833-42.5c-0.35-1.956,1.871-8.495,4.155-14.807 c6.291,8.658,17.293,26.26,15.4,41.083c-2.652,20.562,0.637,30.843,19.554,32.898c18.918,2.057,44.496,1.708,55.929-16.449 c11.185-17.742-2.53-37.69-3.145-38.593C1028.081,1037.037,1041.074,1056.221,1030.115,1078.819z"/><path fill="#636155" d="M862.29,169.375c-2.528,22.124-20.664,33.515-20.664,33.515h-8.225c0,0-116.481-17.272-95.325-83.46 c2.141,13.036,8.205,28.026,23.771,36.455c-2.241-12.397-5.142-21.178-1.853-37.134c3.497,33.187,17.992,56.997,49.678,56.298 C832.64,174.535,851.208,166.455,862.29,169.375z"/><path fill="#FFF" d="M761.012,1008.934c0,5.521-4.479,10.003-10.002,10.003c-5.525,0-10.002-4.482-10.002-10.003 c0-5.526,4.477-10.005,10.002-10.005C756.533,998.929,761.012,1003.408,761.012,1008.934z"/><path fill="#FFF" d="M940.199,1012.109c0-4.955-1.471-8.972-3.286-8.972s-3.287,4.017-3.287,8.972 c0,4.952,1.472,8.968,3.287,8.968S940.199,1017.062,940.199,1012.109z"/><path fill="#FFF" d="M681.089,1009.017c-0.221,0-0.427-0.142-0.497-0.363c-1.419-4.458-8.873-8.771-8.949-8.815 c-0.249-0.143-0.336-0.461-0.192-0.711c0.143-0.251,0.46-0.335,0.712-0.192c0.32,0.184,7.882,4.562,9.424,9.403 c0.087,0.273-0.064,0.566-0.34,0.654C681.194,1009.009,681.141,1009.017,681.089,1009.017z"/><path fill="#FFF" d="M693.541,1006.273c-0.197,0-0.387-0.113-0.475-0.305c-2.104-4.627-9.71-9.788-9.787-9.839 c-0.237-0.161-0.302-0.484-0.141-0.724c0.161-0.24,0.486-0.3,0.723-0.142c0.323,0.218,7.927,5.376,10.153,10.272 c0.119,0.261,0.003,0.571-0.258,0.69C693.687,1006.258,693.613,1006.273,693.541,1006.273z"/><path fill="#FFF" d="M705.808,1003.659c-0.218,0-0.421-0.137-0.495-0.356c-2.525-7.559-11.898-12.054-11.994-12.099 c-0.26-0.122-0.372-0.432-0.249-0.693c0.122-0.259,0.435-0.372,0.693-0.249c0.401,0.189,9.87,4.724,12.54,12.711 c0.09,0.272-0.058,0.568-0.33,0.659C705.918,1003.651,705.862,1003.659,705.808,1003.659z"/><path fill="#FFF" d="M715.445,994.442c-0.172,0-0.34-0.085-0.44-0.243c-5.059-8.006-13.723-8.763-13.81-8.77 c-0.287-0.021-0.502-0.272-0.479-0.559c0.021-0.288,0.301-0.519,0.559-0.479c0.376,0.029,9.275,0.808,14.611,9.252 c0.153,0.243,0.081,0.565-0.163,0.719C715.639,994.416,715.541,994.442,715.445,994.442z"/><path fill="#FFF" d="M952.465,1006.272c-0.132,0-0.264-0.05-0.365-0.15c-0.204-0.201-0.208-0.529-0.008-0.734 c0.206-0.21,5.178-5.11,18.019-1.953c0.28,0.068,0.451,0.351,0.382,0.63c-0.066,0.279-0.347,0.45-0.63,0.382 c-12.208-2.996-16.98,1.624-17.026,1.671C952.733,1006.22,952.599,1006.272,952.465,1006.272z"/><path fill="#FFF" d="M952.465,1016.35c-0.166,0-0.33-0.079-0.431-0.228c-0.162-0.238-0.101-0.562,0.138-0.724 c0.117-0.081,11.955-7.961,27.681-3.792c0.279,0.074,0.444,0.359,0.37,0.637c-0.074,0.279-0.357,0.447-0.637,0.371 c-15.271-4.047-26.715,3.569-26.828,3.646C952.668,1016.321,952.566,1016.35,952.465,1016.35z"/><path fill="#FFF" d="M961.226,1023.795c-0.155,0-0.309-0.069-0.411-0.201c-0.177-0.227-0.137-0.555,0.091-0.731 c0.284-0.222,7.096-5.392,18.946-2.29c0.278,0.072,0.445,0.357,0.371,0.636c-0.072,0.278-0.352,0.446-0.636,0.372 c-11.351-2.972-17.976,2.053-18.041,2.104C961.45,1023.76,961.338,1023.795,961.226,1023.795z"/><path fill="#002600" d="M830.752,226.907c-0.574,0-1.041-0.466-1.042-1.041c-0.004-3.036,0.925-5.345,2.761-6.862 c3.237-2.675,8.059-1.78,8.264-1.741c0.563,0.109,0.932,0.655,0.824,1.22c-0.109,0.563-0.649,0.937-1.219,0.827 c-0.04-0.008-4.077-0.745-6.549,1.307c-1.328,1.102-2,2.867-1.997,5.246C831.795,226.439,831.329,226.906,830.752,226.907 L830.752,226.907z"/><path fill="#002600" d="M790.201,276.476c-0.573,0-1.041-0.465-1.041-1.04c-0.019-7.114,5.899-20.135,6.152-20.687 c0.238-0.522,0.854-0.756,1.381-0.514c0.523,0.239,0.753,0.857,0.514,1.381c-0.06,0.131-5.98,13.156-5.963,19.814 c0,0.575-0.465,1.043-1.039,1.045H790.201z"/><path fill="#002600" d="M666.666,256.225c-0.479,0-0.91-0.332-1.016-0.819c-2.744-12.562-11.614-36.671-11.703-36.913 c-0.199-0.54,0.077-1.139,0.617-1.338c0.539-0.202,1.138,0.076,1.338,0.616c0.09,0.244,9.01,24.487,11.783,37.19 c0.123,0.562-0.233,1.118-0.796,1.241C666.815,256.218,666.74,256.225,666.666,256.225z"/><path fill="#002600" d="M673.582,293.554c-0.515,0-0.961-0.381-1.031-0.904c-0.832-6.23-3.46-21.078-3.486-21.227 c-0.102-0.567,0.276-1.108,0.844-1.209c0.576-0.098,1.107,0.278,1.207,0.845c0.027,0.149,2.665,15.04,3.501,21.315 c0.077,0.57-0.324,1.094-0.896,1.171C673.674,293.551,673.629,293.554,673.582,293.554z"/><path fill="#002600" d="M639.598,403.093c-7.881,0-16.351-6.938-16.707-7.233c-0.181-0.148-0.305-0.354-0.354-0.582l-3.821-17.662 c-0.121-0.563,0.236-1.117,0.798-1.239c0.565-0.117,1.117,0.236,1.239,0.799l3.743,17.299c1.486,1.161,8.715,6.535,15.103,6.535 h0.01h0.001c0.575,0,1.042,0.466,1.042,1.041s-0.467,1.042-1.041,1.043H639.598z"/><path fill="#002600" d="M900.486,435.705c-0.244,0-0.486-0.084-0.685-0.256c-0.435-0.378-0.479-1.036-0.102-1.47 c5.467-6.283,2.783-24.034,2.593-25.238l-5.631-18.716c-0.166-0.551,0.146-1.133,0.698-1.298c0.554-0.167,1.132,0.147,1.299,0.698 l5.649,18.783c0.013,0.042,0.023,0.086,0.03,0.129c0.134,0.805,3.202,19.806-3.067,27.011 C901.066,435.584,900.777,435.705,900.486,435.705z"/><path fill="#002600" d="M688.193,666.499c-0.576,0-1.043-0.466-1.043-1.042v-24.551c0-0.576,0.467-1.042,1.043-1.042 s1.042,0.466,1.042,1.042v24.551C689.235,666.033,688.77,666.499,688.193,666.499z"/><path fill="#002600" d="M688.193,701.57c-0.576,0-1.043-0.466-1.043-1.042v-14.612c0-0.576,0.467-1.042,1.043-1.042 s1.042,0.466,1.042,1.042v14.612C689.235,701.104,688.77,701.57,688.193,701.57z"/><path fill="#002600" d="M770.26,714.431c-0.424,0-0.822-0.26-0.979-0.682c-4.061-11.029-13.381-47.668-13.475-48.036 c-0.143-0.558,0.195-1.125,0.754-1.266c0.555-0.144,1.124,0.193,1.266,0.753c0.094,0.367,9.387,36.901,13.411,47.828 c0.198,0.541-0.077,1.139-0.617,1.338C770.501,714.411,770.38,714.431,770.26,714.431z"/><path fill="#002600" d="M790.969,763.533c-0.379,0-0.744-0.208-0.929-0.568c-2.092-4.095-5.571-13.162-5.718-13.547 c-0.206-0.537,0.063-1.14,0.601-1.346c0.534-0.205,1.14,0.063,1.346,0.601c0.035,0.093,3.586,9.349,5.628,13.344 c0.261,0.513,0.058,1.141-0.454,1.402C791.291,763.497,791.129,763.533,790.969,763.533z"/><path fill="#002600" d="M899.717,619.15c-0.246,0-0.492-0.085-0.689-0.26c-0.433-0.381-0.473-1.039-0.092-1.471 c6.138-6.958,3.215-13.469,3.087-13.742c-0.242-0.521-0.019-1.141,0.501-1.385c0.521-0.242,1.139-0.024,1.384,0.495 c0.152,0.322,3.668,7.99-3.409,16.011C900.291,619.032,900.004,619.15,899.717,619.15z"/><path fill="#002600" d="M818.003,814.586c-0.354,0-0.699-0.18-0.895-0.506c-4.765-7.943-14.802-29.41-15.228-30.32 c-0.243-0.521-0.018-1.141,0.504-1.385c0.521-0.241,1.143-0.018,1.385,0.504c0.104,0.222,10.417,22.278,15.126,30.128 c0.296,0.494,0.136,1.134-0.357,1.43C818.37,814.538,818.186,814.586,818.003,814.586z"/><path fill="#002600" d="M837.519,852.127c-0.339,0-0.672-0.165-0.872-0.47c-5.222-7.947-13.9-25.493-13.986-25.67 c-0.256-0.516-0.043-1.141,0.473-1.396c0.514-0.255,1.141-0.043,1.396,0.473c0.087,0.175,8.709,17.608,13.86,25.449 c0.315,0.48,0.182,1.126-0.299,1.443C837.913,852.072,837.715,852.127,837.519,852.127z"/><path fill="#002600" d="M833.629,826.568c-0.366,0-0.722-0.193-0.912-0.537c-3.516-6.333-9.986-19.077-10.052-19.205 c-0.261-0.513-0.056-1.14,0.458-1.4c0.511-0.26,1.14-0.056,1.4,0.458c0.064,0.127,6.519,12.837,10.016,19.136 c0.279,0.503,0.098,1.138-0.405,1.417C833.975,826.526,833.8,826.568,833.629,826.568z"/><path fill="#002600" d="M890.691,927.212c-0.274,0-0.548-0.107-0.752-0.321c-7.949-8.281-28.793-40.329-29.676-41.688 c-0.314-0.483-0.177-1.129,0.306-1.442c0.482-0.314,1.129-0.176,1.442,0.307c0.215,0.332,21.617,33.242,29.432,41.381 c0.397,0.415,0.385,1.075-0.031,1.474C891.211,927.115,890.95,927.212,890.691,927.212z"/><path fill="#002600" d="M901.787,927.212c-0.294,0-0.587-0.125-0.793-0.367c-4.083-4.796-10.896-15.51-11.184-15.964 c-0.309-0.486-0.164-1.13,0.322-1.439c0.484-0.307,1.13-0.164,1.438,0.322c0.069,0.11,7.021,11.045,11.01,15.729 c0.372,0.439,0.319,1.096-0.118,1.47C902.267,927.13,902.026,927.212,901.787,927.212z"/><path fill="#002600" d="M790.968,744.294c-0.431,0-0.833-0.269-0.983-0.698c-3.038-8.688-7.684-22.234-7.73-22.371 c-0.187-0.544,0.104-1.137,0.648-1.324c0.544-0.183,1.137,0.104,1.324,0.648c0.045,0.136,4.688,13.677,7.726,22.359 c0.189,0.543-0.097,1.138-0.64,1.328C791.198,744.276,791.082,744.294,790.968,744.294z"/><path fill="#002600" d="M930.415,897.439c-0.425,0-0.824-0.261-0.979-0.684l-23.523-64.277c-0.197-0.54,0.08-1.139,0.621-1.337 c0.54-0.195,1.14,0.081,1.337,0.621l23.524,64.277c0.197,0.54-0.081,1.139-0.621,1.337 C930.655,897.419,930.534,897.439,930.415,897.439z"/><path fill="#002600" d="M701.234,865.3c-0.494,0-0.934-0.352-1.023-0.856c-0.945-5.192-3.361-37.469-3.463-38.841 c-0.043-0.574,0.389-1.074,0.962-1.116c0.596-0.052,1.073,0.388,1.116,0.961c0.025,0.335,2.51,33.538,3.434,38.623 c0.104,0.566-0.271,1.108-0.838,1.211C701.358,865.294,701.297,865.3,701.234,865.3z"/><path fill="#002600" d="M688.191,760.27c-0.526,0-0.979-0.399-1.035-0.935l-2.056-19.869c-0.06-0.572,0.356-1.084,0.93-1.144 c0.558-0.05,1.085,0.357,1.144,0.93l2.057,19.869c0.059,0.572-0.357,1.084-0.931,1.144 C688.264,760.268,688.228,760.27,688.191,760.27z"/><path fill="#002600" d="M790.967,839.349c-0.5,0-0.941-0.36-1.026-0.87c-1.475-8.795-0.073-38.823-0.014-40.096 c0.027-0.576,0.56-1.021,1.09-0.992c0.575,0.027,1.02,0.516,0.992,1.09c-0.015,0.311-1.451,31.077-0.013,39.654 c0.094,0.567-0.288,1.104-0.856,1.2C791.082,839.344,791.023,839.349,790.967,839.349z"/><path fill="#002600" d="M790.967,873.986c-0.53,0-0.982-0.402-1.036-0.94c-0.677-6.898-0.031-18.341-0.003-18.826 c0.033-0.574,0.52-1.013,1.101-0.979c0.573,0.032,1.013,0.525,0.979,1.1c-0.006,0.117-0.663,11.765-0.003,18.502 c0.056,0.573-0.362,1.083-0.935,1.139C791.035,873.984,791,873.986,790.967,873.986z"/><path fill="#002600" d="M783.238,852.127c-0.506,0-0.95-0.369-1.028-0.885c-1.217-8.007-0.06-25.066-0.01-25.788 c0.04-0.574,0.519-0.995,1.112-0.968c0.573,0.04,1.007,0.537,0.968,1.112c-0.013,0.174-1.192,17.55-0.011,25.33 c0.087,0.569-0.304,1.1-0.873,1.187C783.344,852.123,783.291,852.127,783.238,852.127z"/><path fill="#002600" d="M852.352,604.275c-0.016,0-0.031,0-0.048-0.001c-25.305-1.139-29.701-32.306-29.743-32.621 c-0.075-0.571,0.326-1.094,0.896-1.17c0.576-0.079,1.094,0.328,1.17,0.898c0.039,0.297,4.217,29.751,27.771,30.811 c0.575,0.025,1.02,0.513,0.994,1.087C853.366,603.839,852.905,604.275,852.352,604.275z"/></svg>